<?xml version="1.0" standalone="no"?>
<!DOCTYPE svg PUBLIC "-//W3C//DTD SVG 1.1//EN" "http://www.w3.org/Graphics/SVG/1.1/DTD/svg11.dtd" >
<svg xmlns="http://www.w3.org/2000/svg" xmlns:xlink="http://www.w3.org/1999/xlink" version="1.1">
<metadata>
Created by FontForge 20161116 at Wed Jun 29 17:39:28 2011
 By Jimmy Wärting
Bogdan Balachi
</metadata>
<defs>
<font id="FacebookLetterFaces" horiz-adv-x="512" >
  <font-face 
    font-family="Facebook Letter Faces"
    font-weight="400"
    font-stretch="normal"
    units-per-em="1000"
    panose-1="0 0 0 0 0 0 0 0 0 0"
    ascent="750"
    descent="-250"
    x-height="532"
    cap-height="750"
    bbox="-836 -287 1070 971"
    underline-thickness="50"
    underline-position="-100"
    stemh="137"
    stemv="165"
    unicode-range="U+0020-E003"
  />
<missing-glyph horiz-adv-x="500" 
 />
    <glyph glyph-name=".notdef" horiz-adv-x="500" 
 />
    <glyph glyph-name="space" unicode=" " horiz-adv-x="404" 
 />
    <glyph glyph-name="exclam" unicode="!" horiz-adv-x="256" 
d="M216 80c0 -20 -1 -48 -20 -61c-15 -15 -48 -18 -68 -18c-17 0 -51 3 -66 18c-17 13 -19 41 -19 61c0 16 2 45 19 58c15 15 45 18 66 18c24 0 53 -3 68 -18c19 -13 20 -42 20 -58zM61 200l-20 501h176l-18 -501h-138z" />
    <glyph glyph-name="quotedbl" unicode="&#x22;" horiz-adv-x="446" 
d="M195 617l-69 -117l-48 -2l35 95c-19 3 -42 5 -57 20c-19 15 -20 36 -20 59s1 46 20 61c15 13 49 16 66 16c19 0 50 -2 67 -16c19 -15 19 -38 19 -61c0 -19 -4 -32 -7 -41c-2 -5 -4 -10 -6 -14zM399 617l-69 -117l-48 -2l35 95c-19 3 -42 5 -57 20c-19 15 -20 36 -20 59
s1 46 20 61c15 13 49 16 66 16c19 0 50 -2 67 -16c19 -15 19 -38 19 -61c0 -19 -4 -32 -7 -41c-2 -5 -4 -10 -6 -14z" />
    <glyph glyph-name="numbersign" unicode="#" horiz-adv-x="625" 
d="M480 482l-35 -126h111l-13 -97h-124l-33 -122h-87l33 122h-129l-34 -124l-84 2l32 122h-79l14 97h90l37 126h-111l12 97h124l33 120h86l-34 -120h131l33 120h86l-33 -120h78l-14 -97h-90zM395 482h-132l-33 -126h129z" />
    <glyph glyph-name="dollar" unicode="$" horiz-adv-x="631" 
d="M549 355c48 -48 45 -114 42 -157c-8 -83 -43 -139 -105 -170c-39 -21 -81 -28 -120 -33v-98h-112v96c-76 4 -146 14 -187 22l-17 169c41 -8 142 -30 226 -30c73 0 111 16 123 48c5 14 5 27 -1 40c-15 31 -61 44 -121 61c-62 19 -141 41 -190 90c-48 50 -48 114 -43 158
c11 83 43 135 106 170c32 16 69 25 104 29v102h112v-97c69 -1 134 -9 178 -17l14 -163c-32 5 -117 21 -192 21c-77 0 -119 -17 -132 -48c-5 -15 -4 -28 1 -40c17 -32 66 -48 131 -67c67 -21 141 -42 183 -86z" />
    <glyph glyph-name="percent" unicode="%" horiz-adv-x="-870" 
d="M-715 2l432 694h128l-433 -694h-127zM-673 703c117 3 156 -77 156 -181c0 -116 -47 -185 -160 -181c-119 -5 -159 73 -159 180c0 109 41 185 163 182zM-676 412c47 0 72 33 69 109c3 73 -22 110 -69 110c-44 0 -70 -34 -70 -110s25 -109 70 -109zM-192 357
c122 3 157 -75 157 -180c0 -115 -43 -183 -160 -183c-119 0 -157 73 -157 181c-3 112 42 182 160 182zM-192 66c46 0 69 37 68 110c1 73 -21 110 -68 110c-44 0 -72 -34 -72 -111c0 -75 25 -109 72 -109z" />
    <glyph glyph-name="ampersand" unicode="&#x26;" horiz-adv-x="725" 
d="M273 -22c-216 0 -238 134 -238 189c0 84 46 149 139 195l8 5l-5 4c-37 39 -59 86 -59 133c0 43 21 88 56 119c29 27 83 58 171 58c115 0 194 -67 202 -157c4 -73 -33 -120 -70 -149c-22 -17 -47 -31 -76 -41l98 -110c5 4 9 9 14 16c8 11 18 26 26 47l109 -26
c-11 -33 -26 -65 -39 -89c-7 -14 -15 -27 -24 -39l127 -133h-187l-42 41c-17 -13 -37 -24 -59 -33c-37 -16 -90 -33 -151 -30zM272 272c-40 -15 -71 -35 -82 -63c-7 -19 -6 -38 5 -54c5 -13 30 -45 98 -45c32 0 57 8 76 16c11 5 20 10 29 16c-17 18 -33 35 -48 52
c-27 28 -57 59 -74 78l-2 1zM336 579c-35 0 -71 -19 -71 -62c0 -11 5 -47 49 -86l1 -1h2c80 19 95 60 92 90c-5 41 -40 59 -73 59z" />
    <glyph glyph-name="quoteright" unicode="&#x2019;" horiz-adv-x="251" 
d="M197 617l-69 -117l-48 -2l35 95c-19 3 -42 5 -57 20c-19 15 -20 36 -20 59s1 46 20 61c15 13 49 16 66 16c19 0 50 -2 67 -16c19 -15 19 -38 19 -61c0 -19 -4 -32 -7 -41c-2 -5 -4 -10 -6 -14z" />
    <glyph glyph-name="parenleft" unicode="(" horiz-adv-x="323" 
d="M271 -126c-101 0 -236 85 -236 372v45c0 285 135 372 236 372h5l7 -85c-51 -11 -113 -99 -113 -262v-95c0 -162 62 -252 113 -265l-7 -82h-5z" />
    <glyph glyph-name="parenright" unicode=")" horiz-adv-x="330" 
d="M56 664c101 0 236 -85 236 -372v-45c0 -285 -135 -372 -236 -372h-5l-7 85c51 11 113 99 113 262v95c0 162 -62 252 -113 265l7 82h5z" />
    <glyph glyph-name="asterisk" unicode="*" horiz-adv-x="461" 
d="M315 587l106 -50l-53 -91l-95 67l9 -117h-104l9 117l-95 -67l-53 91l104 50l-104 50l53 92l95 -67l-9 116h104l-9 -116l95 67l53 -92z" />
    <glyph glyph-name="plus" unicode="+" horiz-adv-x="595" 
d="M555 199h-192v-190h-137v190h-191v137h191v192h137v-192h192v-137z" />
    <glyph glyph-name="comma" unicode="," horiz-adv-x="246" 
d="M195 17l-69 -117l-48 -2l35 95c-19 3 -42 5 -57 20c-19 15 -20 36 -20 59s1 46 20 61c15 13 49 16 66 16c19 0 50 -2 67 -16c19 -15 19 -38 19 -61c0 -19 -4 -32 -7 -41c-2 -5 -4 -10 -6 -14z" />
    <glyph glyph-name="hyphen" unicode="-" horiz-adv-x="529" 
d="M491 199h-451v137h451v-137z" />
    <glyph glyph-name="period" unicode="." horiz-adv-x="244" 
d="M123 149c23 0 50 -1 66 -17c19 -15 21 -42 21 -59c0 -20 -2 -48 -21 -61c-16 -15 -47 -18 -66 -18s-50 3 -65 18c-19 13 -22 41 -22 61c0 17 3 44 22 59c15 16 42 17 65 17z" />
    <glyph glyph-name="slash" unicode="/" horiz-adv-x="562" 
d="M1 0l431 694h127l-432 -694h-126z" />
    <glyph glyph-name="zero" unicode="0" horiz-adv-x="683" 
d="M343 759c245 8 318 -160 318 -381c0 -247 -91 -394 -321 -389c-237 -5 -319 155 -319 385c-3 236 88 390 322 385zM342 140c92 0 138 78 138 235c0 155 -42 234 -138 234c-87 0 -143 -72 -143 -235c0 -161 51 -234 143 -234z" />
    <glyph glyph-name="one" unicode="1" horiz-adv-x="353" 
d="M327 749v-749h-179v593h-2h-125l18 156h288z" />
    <glyph glyph-name="two" unicode="2" horiz-adv-x="590" 
d="M565 151l-17 -151h-526v156l101 86c171 147 246 191 251 271c4 68 -51 97 -134 86c-45 -5 -122 -37 -175 -66l20 178c56 27 124 46 203 46c179 0 273 -97 273 -232c0 -128 -115 -227 -230 -323l-64 -51h298z" />
    <glyph glyph-name="three" unicode="3" horiz-adv-x="561" 
d="M371 399c101 -19 167 -83 167 -182c0 -132 -120 -228 -319 -228c-84 0 -155 19 -203 40l17 156c36 -19 103 -43 174 -43c96 0 143 29 143 84c0 73 -76 92 -157 100l-75 7v126l75 6c65 8 141 22 141 86c0 45 -34 68 -121 61c-49 -7 -99 -17 -134 -32l8 69l11 89
c44 15 99 22 156 22c165 0 258 -83 258 -187c0 -79 -40 -139 -141 -172v-2z" />
    <glyph glyph-name="four" unicode="4" horiz-adv-x="654" 
d="M626 224l-8 -65h-76v-159h-154v159h-369v134l296 456h227v-438h95zM388 579l-176 -268h176v268z" />
    <glyph glyph-name="five" unicode="5" horiz-adv-x="589" 
d="M533 749l-19 -152h-271l-17 -107c17 3 18 3 37 3c76 0 151 -15 206 -54c60 -39 96 -99 96 -187c0 -141 -126 -264 -337 -264c-83 0 -164 19 -212 38l18 156c40 -16 122 -40 186 -40c75 0 157 18 157 97s-65 125 -222 125c-43 0 -68 -2 -100 -7l45 392h433z" />
    <glyph glyph-name="six" unicode="6" horiz-adv-x="833" 
d="M533 613c-186 19 -294 -88 -318 -146c11 7 24 13 40 19c27 9 67 19 123 19c132 0 237 -54 242 -245c3 -149 -86 -272 -290 -272c-241 0 -313 149 -313 330c0 141 54 257 142 333c76 68 178 104 301 111h56zM319 358c-70 -5 -115 -40 -124 -69c-10 -62 28 -154 132 -149
c84 4 128 38 128 114c0 88 -60 107 -136 104z" />
    <glyph glyph-name="seven" unicode="7" horiz-adv-x="595" 
d="M572 749v-110c-43 -55 -84 -116 -124 -183c-69 -113 -148 -274 -191 -456h-203c19 63 43 128 72 195c51 116 128 262 241 402h-345l17 152h533z" />
    <glyph glyph-name="eight" unicode="8" horiz-adv-x="629" 
d="M157 386c-76 39 -113 97 -113 164c0 127 120 210 276 210c183 0 258 -100 258 -191c0 -65 -37 -127 -114 -166l-2 -1c77 -27 147 -91 147 -186c0 -136 -121 -228 -301 -228c-199 0 -290 108 -290 209c0 91 54 151 139 187v2zM422 202c0 67 -51 105 -122 124
c-63 -16 -95 -57 -95 -112c-1 -53 42 -94 110 -94c64 0 107 29 107 82zM218 556c0 -51 46 -84 109 -101c43 11 79 47 79 94c0 48 -26 85 -94 85c-64 0 -94 -31 -94 -78z" />
    <glyph glyph-name="nine" unicode="9" horiz-adv-x="833" 
d="M374 760c239 0 313 -148 313 -327c0 -141 -54 -258 -141 -335c-77 -68 -178 -103 -302 -110c-24 0 -68 -2 -80 -2l16 149c225 0 287 93 308 149c-11 -7 -24 -14 -40 -20c-27 -11 -66 -20 -121 -20c-131 0 -239 54 -244 245c-3 149 88 271 291 271zM509 460
c18 63 -30 148 -132 148c-83 0 -127 -35 -127 -114c0 -86 59 -107 135 -102c71 3 116 41 124 68z" />
    <glyph glyph-name="colon" unicode=":" horiz-adv-x="239" 
d="M208 99c0 -20 -4 -46 -20 -61c-17 -15 -47 -17 -66 -17c-20 0 -52 2 -69 17c-16 15 -19 44 -19 61c0 19 3 44 19 59c17 15 46 18 69 18c21 0 49 -3 66 -18c16 -15 20 -40 20 -59zM208 424c0 -19 -4 -46 -20 -61c-17 -15 -47 -19 -66 -19c-20 0 -52 4 -69 19
c-16 15 -19 42 -19 61c0 16 3 42 19 57c17 15 46 19 69 19c21 0 49 -4 66 -19c16 -15 20 -41 20 -57z" />
    <glyph glyph-name="semicolon" unicode=";" horiz-adv-x="239" 
d="M205 99c0 -19 -3 -32 -6 -41c-2 -5 -4 -10 -6 -14l-71 -120h-48l38 97c-21 0 -47 2 -60 17c-16 15 -19 38 -19 61s3 44 19 59c17 15 49 18 68 18c16 0 50 -3 67 -18c16 -15 18 -36 18 -59zM187 481c16 -15 18 -41 18 -57c0 -19 -2 -46 -18 -61c-17 -15 -48 -19 -67 -19
c-20 0 -51 4 -68 19c-16 15 -19 42 -19 61c0 16 3 42 19 57c17 15 45 19 68 19c21 0 50 -4 67 -19z" />
    <glyph glyph-name="less" unicode="&#x3c;" horiz-adv-x="415" 
d="M35 186v164l350 219v-164l-218 -138l218 -138v-164z" />
    <glyph glyph-name="equal" unicode="=" horiz-adv-x="511" 
d="M480 316h-449v137h449v-137zM480 218h-449v-136h449v136z" />
    <glyph glyph-name="greater" unicode="&#x3e;" horiz-adv-x="412" 
d="M382 348v-164l-350 -219v164l218 138l-218 138v164z" />
    <glyph glyph-name="question" unicode="?" horiz-adv-x="519" 
d="M260 80c0 -20 -2 -48 -21 -61c-15 -15 -46 -18 -65 -18s-51 3 -66 18c-19 13 -21 41 -21 61c0 16 2 45 21 58c15 15 43 18 66 18s50 -3 65 -18c19 -13 21 -42 21 -58zM488 490c0 -3 -1 -5 -1 -6l1 -1h-1c0 -49 -7 -81 -18 -101c-33 -73 -104 -110 -214 -111v-72h-165v207
c60 -8 103 -13 128 -13h10c43 0 70 7 81 20c9 6 14 29 14 70c0 45 -6 70 -17 76c-13 11 -39 16 -80 16c-47 3 -128 -11 -191 -22l14 123c60 13 136 23 197 23c102 0 172 -30 211 -89c18 -23 28 -63 30 -120h1z" />
    <glyph glyph-name="at" unicode="@" horiz-adv-x="785" 
d="M435 289v13c0 21 -7 27 -12 34c-9 7 -25 10 -48 10h-114l11 102h122c78 0 127 -19 146 -57c12 -24 17 -44 17 -84v-148c44 -16 67 20 78 60c7 23 10 51 10 83c-3 68 -15 128 -54 159c-51 45 -123 51 -203 51c-88 0 -164 -26 -204 -71v-2c-41 -51 -49 -116 -49 -199
s20 -152 63 -188h1c50 -45 133 -52 176 -52h194l-11 -94h-185c-58 0 -168 10 -238 74c-63 49 -101 127 -101 244c0 120 7 206 77 282c57 64 155 99 274 99c111 0 203 -16 271 -72c48 -37 91 -99 91 -220c0 -137 -42 -255 -167 -255c-36 0 -66 4 -89 8c-13 3 -24 6 -35 9
c-1 1 -1 2 -2 4c-1 3 -3 6 -4 10c-37 -21 -74 -31 -111 -31h-11c-35 0 -63 15 -85 44c-16 21 -22 45 -22 73v3c0 48 17 80 51 95c15 12 47 16 104 16h59zM435 205h-42c-25 0 -40 -2 -44 -6c-5 -4 -8 -11 -8 -21c0 -22 12 -33 35 -33c15 0 35 6 59 17v43z" />
    <glyph glyph-name="A" unicode="A" horiz-adv-x="756" 
d="M756 0h-211l-35 115h-262l-34 -115h-212l273 750h210zM475 254l-96 321l-96 -321h192z" />
    <glyph glyph-name="B" unicode="B" horiz-adv-x="645" 
d="M528 388c65 -41 91 -93 91 -165v-18c0 -149 -132 -212 -244 -212c-31 0 -328 9 -339 9v748c55 1 106 2 151 3c77 3 156 3 169 3c125 -5 241 -55 241 -214v-19c0 -59 -29 -103 -69 -135zM371 447c40 8 62 18 62 79c0 48 -28 84 -107 80l-99 -2v-157h144zM344 144
c72 -3 107 32 107 80s-25 80 -69 87h-155v-162l3 -1z" />
    <glyph glyph-name="C" unicode="C" horiz-adv-x="590" 
d="M403 144c35 0 88 6 157 17v-149c-21 -3 -47 -6 -78 -11c-32 -5 -70 -8 -113 -8c-159 0 -262 58 -309 173c-15 39 -26 97 -26 185v49c0 108 17 176 42 217c53 93 151 140 294 140c60 0 122 -8 190 -21v-148c-75 11 -131 16 -172 16c-68 0 -106 -6 -133 -33
c-23 -19 -34 -64 -34 -148v-114c0 -79 15 -112 30 -127c21 -25 62 -38 134 -38h18z" />
    <glyph glyph-name="D" unicode="D" horiz-adv-x="689" 
d="M614 617c27 -48 43 -110 43 -217v-49c0 -88 -9 -148 -25 -185c-43 -113 -149 -170 -310 -170c-81 0 -153 1 -205 2c-31 1 -58 1 -83 2v751c47 0 90 0 129 1c67 0 138 2 157 2c174 0 256 -64 294 -137zM469 424c0 84 -14 127 -34 147c-21 23 -65 34 -133 34
c-21 0 -50 -2 -79 -5v-452c24 -3 49 -3 65 -3h18c72 0 114 14 133 37c12 15 30 50 30 126v116z" />
    <glyph glyph-name="E" unicode="E" horiz-adv-x="507" 
d="M228 605v-159h195l-12 -137h-183v-161h245v-148h-438v750h438v-145h-245z" />
    <glyph glyph-name="F" unicode="F" horiz-adv-x="505" 
d="M226 605v-159h196l-15 -136h-181v-310h-192v750h87h105h244v-145h-244z" />
    <glyph glyph-name="G" unicode="G" horiz-adv-x="635" 
d="M600 446v-89v-47v-289c-21 -5 -43 -10 -67 -14c-43 -7 -98 -13 -165 -13c-157 0 -261 57 -310 172c-15 37 -24 98 -24 186v49c0 104 15 177 42 216c56 92 150 138 293 138c60 0 122 -7 190 -20l16 -148c-73 12 -147 18 -187 18c-67 0 -111 -11 -132 -33
c-19 -12 -36 -67 -36 -148v-117c0 -76 14 -113 33 -125c17 -25 60 -37 130 -37h20h15v165h-111l15 136h89h189z" />
    <glyph glyph-name="H" unicode="H" horiz-adv-x="654" 
d="M621 750v-410v-340h-193v310h-202v-310h-191v750h191v-304h202v304h193z" />
    <glyph glyph-name="I" unicode="I" horiz-adv-x="263" 
d="M228 750v-410v-340h-191v750h191z" />
    <glyph glyph-name="J" unicode="J" horiz-adv-x="425" 
d="M393 750v-279v-184c0 -156 -53 -210 -127 -250c-74 -37 -123 -44 -209 -44h-30l17 151c69 0 158 9 158 117v489h191z" />
    <glyph glyph-name="K" unicode="K" horiz-adv-x="671" 
d="M450 0c-16 23 -71 114 -124 196c-31 49 -65 102 -102 161v-357h-192v750h192v-324c39 61 74 115 105 162c51 81 104 162 105 162h200l-243 -356c0 -5 225 -341 258 -394h-199z" />
    <glyph glyph-name="L" unicode="L" horiz-adv-x="505" 
d="M464 146l15 -146h-449v750h190v-604h244z" />
    <glyph glyph-name="M" unicode="M" horiz-adv-x="1052" 
d="M1028 0h-212l-64 530l-153 -530h-141l-153 530l-64 -530l-217 2l112 748h292l100 -356l101 356h285z" />
    <glyph glyph-name="N" unicode="N" horiz-adv-x="673" 
d="M641 749v-410v-339h-192l-226 400v-400h-191v749h191l226 -395v395h192z" />
    <glyph glyph-name="O" unicode="O" horiz-adv-x="701" 
d="M642 616c28 -40 42 -112 42 -217v-49c0 -88 -8 -149 -24 -184c-25 -59 -64 -103 -117 -131c-50 -27 -114 -41 -191 -41s-141 14 -191 41c-53 29 -92 72 -117 131c-17 37 -25 98 -25 184v49c0 105 14 178 43 217c24 41 56 73 99 96c51 28 114 42 191 42
c76 0 140 -14 191 -42c43 -23 74 -55 99 -96zM236 181c16 -23 55 -35 116 -36c61 1 99 13 115 36c16 13 28 53 28 130v114c0 83 -12 133 -31 145c-20 20 -57 31 -112 33c-55 -2 -92 -13 -112 -33c-19 -12 -35 -57 -35 -141v-115c0 -76 15 -120 31 -133z" />
    <glyph glyph-name="P" unicode="P" horiz-adv-x="631" 
d="M571 655c17 -35 30 -80 30 -156v-35c0 -64 -5 -109 -17 -133c-36 -83 -101 -121 -225 -121c-15 -1 -48 1 -79 4c-17 2 -36 4 -56 6v-220h-187v749c27 1 57 1 90 2c57 1 136 3 232 3c114 0 175 -32 212 -99zM431 513c0 49 -7 67 -18 80c-23 23 -64 31 -189 20v-256
c141 -16 168 -7 184 12c15 16 23 30 23 77v67z" />
    <glyph glyph-name="Q" unicode="Q" horiz-adv-x="770" 
d="M770 0h-194l-27 30l-5 2c-48 -27 -109 -38 -184 -38c-77 0 -140 14 -191 41c-52 28 -91 72 -116 131c-17 37 -25 98 -25 184v49c0 107 15 177 42 217c25 41 58 73 99 96c52 28 116 42 191 42c77 0 141 -14 191 -42c41 -22 75 -54 100 -96c27 -40 41 -110 41 -217v-49
c0 -88 -7 -149 -24 -184c-7 -16 -14 -30 -21 -43l54 -54zM360 145c27 0 47 3 64 7l-58 61l97 95l40 -40c0 13 1 27 1 43v114c0 83 -13 133 -32 145c-19 20 -56 31 -112 33c-54 -2 -91 -13 -111 -33c-19 -12 -35 -57 -35 -141v-115c0 -76 15 -120 32 -133
c16 -23 54 -35 114 -36z" />
    <glyph glyph-name="R" unicode="R" horiz-adv-x="666" 
d="M307 215c-23 5 -43 6 -58 6c-9 0 -17 0 -24 -1v-220h-187v749c27 1 58 1 91 2c57 1 137 3 233 3c114 0 171 -32 211 -99c16 -35 30 -80 30 -156v-35c0 -64 -15 -102 -31 -129c-19 -33 -43 -54 -87 -73c57 -21 90 -77 100 -100c7 -13 22 -53 37 -90c9 -22 18 -46 29 -72
h-198c-5 15 -11 30 -18 45c-11 27 -24 59 -39 90c-16 35 -37 69 -89 80zM225 357c16 -1 31 -1 46 -2c25 -1 52 -2 64 -2c9 -1 18 0 27 2c15 3 34 9 50 25c19 19 23 42 23 74v55c0 49 -5 67 -17 82c-24 24 -69 33 -193 22v-256z" />
    <glyph glyph-name="S" unicode="S" horiz-adv-x="631" 
d="M287 -6c-87 0 -175 13 -224 21l-15 168c37 -8 141 -29 225 -29c71 0 112 16 123 48c6 13 6 26 -1 39c-15 31 -61 45 -121 62c-63 16 -144 41 -192 89c-46 49 -46 113 -41 157c9 83 44 139 106 170c52 28 114 32 169 35h28c73 0 147 -10 194 -17l16 -164
c-32 8 -117 23 -192 23s-118 -17 -131 -50c-5 -14 -5 -27 1 -40c16 -33 66 -48 130 -67c68 -19 141 -41 182 -85c48 -48 48 -115 43 -156c-9 -82 -45 -139 -106 -170c-52 -28 -114 -31 -170 -34h-24z" />
    <glyph glyph-name="T" unicode="T" horiz-adv-x="629" 
d="M587 604h-179v-265v-339h-192v604h-177v145h177h192h179v-145z" />
    <glyph glyph-name="U" unicode="U" horiz-adv-x="736" 
d="M702 749v-398c0 -87 -9 -149 -26 -186c-25 -59 -64 -103 -116 -130c-51 -27 -115 -42 -191 -42c-77 0 -140 15 -191 42c-54 29 -93 72 -117 130c-17 35 -25 97 -25 186v398h186v-436c0 -76 15 -119 31 -132c17 -23 56 -36 116 -38c61 2 99 15 115 38c15 13 29 53 29 129
v439h189z" />
    <glyph glyph-name="V" unicode="V" horiz-adv-x="734" 
d="M734 749l-236 -749h-131h-130l-237 749h211l156 -530l156 530h211z" />
    <glyph glyph-name="W" unicode="W" horiz-adv-x="1021" 
d="M1020 749l-199 -749h-223l-88 351l-86 -351h-224l-200 749h211l113 -473l103 473h83h1h84l103 -473l112 473h210z" />
    <glyph glyph-name="X" unicode="X" horiz-adv-x="716" 
d="M460 0l-104 280l-105 -280h-224l177 385l-168 364h217l103 -261l103 261h218l-169 -364l176 -385h-224z" />
    <glyph glyph-name="Y" unicode="Y" horiz-adv-x="625" 
d="M323 0h-210l93 233l-203 516h210l100 -309l100 309h209z" />
    <glyph glyph-name="Z" unicode="Z" horiz-adv-x="640" 
d="M585 0h-573l329 604h-283l15 145h557l-324 -599h300z" />
    <glyph glyph-name="bracketleft" unicode="[" horiz-adv-x="312" 
d="M35 -65v842h243v-64h-106v-713h106v-65h-243z" />
    <glyph glyph-name="backslash" unicode="\" horiz-adv-x="563" 
d="M432 0l-431 694h128l432 -694h-129z" />
    <glyph glyph-name="bracketright" unicode="]" horiz-adv-x="317" 
d="M278 778v-842h-243v64h106v713h-106v65h243z" />
    <glyph glyph-name="asciicircum" unicode="^" horiz-adv-x="649" 
d="M179 396h-149l225 421h137l227 -421h-154l-141 279h-4z" />
    <glyph glyph-name="underscore" unicode="_" horiz-adv-x="597" 
d="M561 0h-523v139h523v-139z" />
    <glyph glyph-name="quoteleft" unicode="&#x2018;" horiz-adv-x="242" 
d="M48 631l69 117l48 2l-35 -95c19 -3 42 -5 57 -20c19 -15 20 -36 20 -59s-1 -46 -20 -61c-17 -14 -49 -16 -66 -16c-19 0 -50 2 -67 16c-19 15 -19 38 -19 61c0 17 3 32 6 41c2 5 4 10 7 14z" />
    <glyph glyph-name="a" unicode="a" 
d="M459 454c15 -31 22 -73 22 -126v-328h-136c-1 3 -2 7 -3 10c-3 7 -4 15 -5 23c-48 -25 -96 -39 -147 -39h-14c-49 0 -88 19 -117 57c-19 29 -29 62 -29 99v4c0 65 23 107 68 128c19 13 66 19 141 19h77v18c0 37 -5 58 -16 64c-12 9 -33 13 -62 13h-154l15 136h165
c105 0 170 -26 195 -78zM316 192h-55c-32 0 -51 -3 -58 -10c-5 -5 -8 -14 -8 -28c0 -29 15 -44 45 -44c21 0 47 9 76 22v60z" />
    <glyph glyph-name="b" unicode="b" horiz-adv-x="542" 
d="M491 467c13 -21 19 -73 19 -155v-53c0 -86 -6 -140 -19 -161c-4 -13 -16 -30 -35 -49c-40 -37 -108 -56 -205 -56c-67 0 -139 7 -218 22v734l164 29v-257c45 15 91 20 118 20c95 0 153 -25 176 -74zM345 342c0 33 -15 53 -46 60h-14h-11c-26 0 -52 -7 -77 -22v-249l48 -3
h13c47 0 75 15 83 46c3 9 4 19 4 32v136z" />
    <glyph glyph-name="c" unicode="c" horiz-adv-x="479" 
d="M275 540c54 0 110 -7 169 -22v-133c-59 11 -117 18 -150 18c-39 0 -65 -7 -78 -20c-11 -7 -17 -35 -17 -84v-68c0 -45 5 -71 15 -79c12 -15 38 -23 77 -23h12c29 0 75 7 140 19h1v-132c0 -3 -29 -9 -88 -18c-23 -3 -50 -5 -81 -5c-113 0 -187 41 -222 123
c-12 26 -18 70 -18 133v36c0 76 10 128 30 156c39 66 109 99 210 99z" />
    <glyph glyph-name="d" unicode="d" horiz-adv-x="545" 
d="M33 312c0 81 7 132 20 155c22 49 81 74 176 74c35 -1 82 -9 117 -20c0 -23 1 34 1 97c0 37 0 80 1 131l163 29v-764c-80 -13 -151 -21 -219 -21c-97 0 -165 19 -205 56c-19 20 -30 36 -34 49c-13 21 -20 75 -20 161v53zM198 207c0 -12 1 -22 4 -33c9 -31 37 -46 85 -46
h11l48 2v249c-24 15 -49 23 -76 23h-12l-12 -1c-32 -6 -48 -26 -48 -60v-134z" />
    <glyph glyph-name="e" unicode="e" horiz-adv-x="536" 
d="M482 434c13 -29 19 -69 19 -120v-92v-3h-299v-16c0 -36 11 -58 33 -66c15 -4 32 -7 59 -7h13c57 0 117 6 180 19h1v-134c0 -2 -28 -7 -84 -16c-35 -4 -76 -6 -121 -6c-117 0 -193 40 -227 119c-13 32 -19 65 -19 98v128c0 94 39 156 118 187c37 12 73 17 112 17
c110 0 182 -36 215 -108zM336 339c0 37 -8 59 -24 66c-12 8 -27 12 -44 12c-47 0 -66 -21 -66 -62v-25h134v9z" />
    <glyph glyph-name="f" unicode="f" horiz-adv-x="417" 
d="M274 789h124v-136h-74c-22 0 -36 -6 -43 -18c-5 -8 -7 -22 -7 -41v-62h126l-15 -137h-111v-395h-163v395h-80v137h80v82c0 84 29 138 86 161c28 11 52 14 77 14z" />
    <glyph glyph-name="g" unicode="g" horiz-adv-x="550" 
d="M514 13c-1 -5 -1 -9 -1 -13v-19c-3 -24 -9 -48 -18 -71c-35 -80 -111 -120 -229 -120c-45 0 -85 2 -119 6c-56 9 -84 14 -84 16v132l1 1c65 -13 124 -18 179 -18h13c27 0 46 3 59 8c23 9 35 30 35 65v18c-10 -4 -21 -7 -33 -10c-21 -5 -51 -9 -86 -9
c-95 0 -153 25 -176 74c-13 19 -20 71 -20 154v53c0 85 5 128 20 161c11 25 34 71 95 90c89 24 168 -1 221 -30c0 8 1 16 4 23c1 3 2 7 3 11h136v-522zM350 379c-19 7 -34 10 -45 13c-7 1 -13 2 -18 3c-45 6 -73 -7 -82 -39c-3 -10 -5 -20 -5 -31v-127c0 -34 16 -54 48 -60
l13 -2h10c25 0 52 8 79 24v219z" />
    <glyph glyph-name="h" unicode="h" horiz-adv-x="546" 
d="M493 465c13 -19 19 -71 19 -154v-312h-166v341c0 34 -15 54 -45 60l-15 1h-11c-24 0 -49 -8 -76 -23v-379h-165v750l165 28v-258c44 15 90 20 117 20c95 0 154 -25 177 -74z" />
    <glyph glyph-name="i" unicode="i" horiz-adv-x="228" 
d="M180 727c19 -15 21 -41 21 -60c0 -20 -2 -44 -21 -59c-15 -15 -46 -17 -65 -17c-20 0 -49 2 -68 17c-16 15 -18 40 -18 59c0 17 2 45 18 60c19 15 45 17 68 17s50 -2 65 -17zM32 532v-532h165v532h-165z" />
    <glyph glyph-name="j" unicode="j" horiz-adv-x="363" 
d="M312 727c17 -15 20 -41 20 -60c0 -20 -3 -44 -20 -59c-15 -15 -47 -17 -66 -17c-20 0 -50 2 -65 17c-19 15 -21 40 -21 59c0 17 2 45 21 60c15 15 42 17 65 17s51 -2 66 -17zM164 532v-512v-20c0 -37 -11 -59 -34 -65c-15 -4 -32 -9 -59 -9h-13c-15 0 -29 1 -45 2v-137
c23 -1 42 -2 69 -2c116 0 192 40 227 121c11 24 14 47 17 71c1 9 2 17 2 25v7v519h-164z" />
    <glyph glyph-name="k" unicode="k" horiz-adv-x="555" 
d="M199 778v-480h1l149 235h177l-163 -258l163 -275h-177l-149 248h-1v-248h-164v749z" />
    <glyph glyph-name="l" unicode="l" horiz-adv-x="336" 
d="M200 779v-550v-20c0 -36 12 -58 35 -66c29 -8 79 -7 86 -7v-138c-15 -1 -25 -1 -40 -1c-116 0 -192 41 -228 123c-9 23 -15 46 -17 69c-1 9 -1 18 -1 26v7v528z" />
    <glyph glyph-name="m" unicode="m" horiz-adv-x="865" 
d="M808 467c14 -21 21 -73 21 -155v-312h-166v342c0 33 -15 53 -46 60c-37 7 -76 -7 -103 -22v-380h-166v342c0 33 -15 53 -46 60c-10 1 -21 2 -32 1c-19 -3 -43 -7 -70 -23h-1v-380h-164v535h106h29c2 -3 4 -7 6 -10c3 -7 7 -14 10 -25c10 5 65 38 145 41h9
c44 1 86 -5 121 -34c1 0 2 0 3 -1c47 17 105 36 169 36c95 0 154 -25 175 -75z" />
    <glyph glyph-name="n" unicode="n" horiz-adv-x="546" 
d="M491 467c15 -28 20 -72 20 -155v-312h-165v342c0 33 -16 53 -47 60c-10 1 -21 2 -32 1c-19 -3 -43 -7 -70 -23v-380h-164v534h136l5 -10c3 -7 7 -14 10 -25c11 5 64 38 145 41c64 3 121 -5 162 -73z" />
    <glyph glyph-name="o" unicode="o" horiz-adv-x="505" 
d="M477 413c9 -27 13 -59 13 -97v-98c0 -103 -37 -170 -110 -202c-36 -15 -79 -23 -130 -23c-109 0 -181 36 -214 107c-15 29 -23 65 -23 109v117c0 104 45 171 135 200c31 9 61 15 96 15h16c115 0 185 -44 217 -128zM326 322c0 42 -12 67 -36 74c-9 5 -20 6 -32 6h-13
c-29 0 -50 -12 -62 -36c-3 -9 -5 -19 -5 -34v-134c0 -46 24 -69 72 -69h4c38 0 62 17 71 50c0 9 1 19 1 34v109z" />
    <glyph glyph-name="p" unicode="p" horiz-adv-x="546" 
d="M34 523v12h136c1 -4 2 -8 3 -11c3 -9 4 -17 5 -24c52 27 131 57 219 30c58 -19 84 -66 95 -90c13 -35 20 -75 20 -161v-52c0 -81 -7 -132 -20 -155c-21 -50 -80 -75 -175 -75c-35 0 -64 5 -85 10c-12 3 -23 6 -33 10v-18v-210l-165 -30v650v114zM199 159
c27 -15 53 -23 77 -23h10l14 1c31 7 46 27 46 60v124c0 14 -1 25 -4 33c-9 31 -37 46 -81 39c-5 -1 -11 -2 -18 -3c-11 -3 -27 -6 -44 -13v-218z" />
    <glyph glyph-name="q" unicode="q" horiz-adv-x="554" 
d="M516 409v-621l-166 -30v241v18c-9 -4 -20 -7 -32 -10c-21 -5 -50 -10 -86 -10c-95 0 -153 25 -175 74c-14 23 -21 75 -21 156v51c0 88 5 127 21 162c11 24 35 72 95 90c89 27 168 -3 220 -30c1 7 2 15 5 24c1 3 2 7 3 11h136v-12v-114zM350 378c-17 7 -31 9 -42 12
c-7 1 -12 2 -17 3c-47 7 -77 -8 -84 -39c-3 -9 -4 -20 -4 -33v-125c0 -33 16 -52 47 -59l14 -1h10c27 0 49 7 76 22v220z" />
    <glyph glyph-name="r" unicode="r" horiz-adv-x="399" 
d="M301 534c21 5 42 7 63 8l16 -141c-20 1 -57 -2 -70 -5l-11 -2c-24 -5 -57 -16 -101 -32v-27v-335h-163v537h135c1 -4 3 -8 5 -12c3 -7 6 -16 9 -27c13 5 19 7 38 14c23 8 48 15 79 22z" />
    <glyph glyph-name="s" unicode="s" horiz-adv-x="492" 
d="M470 145c-16 -137 -146 -149 -224 -152c-79 0 -163 10 -204 18l-15 143c37 -8 249 -50 270 0c20 53 -157 42 -236 117c-40 35 -41 81 -38 116c16 139 148 150 225 153c72 3 143 -6 184 -13l15 -141c-51 11 -230 39 -249 -6c-23 -54 165 -50 236 -117
c38 -38 39 -81 36 -118z" />
    <glyph glyph-name="t" unicode="t" horiz-adv-x="442" 
d="M403 118v-120h-39c-117 0 -246 -10 -246 187c0 3 -1 57 -1 109v102h-80v137h80v133l164 28v-161h125l-17 -137h-108v-152v152v-189c0 -35 0 -62 36 -73c29 -13 81 -16 86 -16z" />
    <glyph glyph-name="u" unicode="u" horiz-adv-x="558" 
d="M56 68c-15 31 -20 73 -20 157v308h167v-338c0 -33 16 -54 48 -61c10 -1 21 -2 32 -1c19 1 45 6 72 23l1 377h166v-533h-137l-6 9c-3 7 -6 13 -9 24c-13 -5 -67 -37 -148 -40c-66 -3 -123 6 -166 75z" />
    <glyph glyph-name="v" unicode="v" horiz-adv-x="582" 
d="M582 533l-183 -533h-210l-189 533h179l114 -358l111 358h178z" />
    <glyph glyph-name="w" unicode="w" horiz-adv-x="837" 
d="M823 532l-156 -532h-180l-69 236l-71 -236h-179l-156 532h168l86 -335l78 335h147l78 -335l85 335h169z" />
    <glyph glyph-name="x" unicode="x" horiz-adv-x="569" 
d="M550 0h-184l-79 188l-79 -188h-186l146 275l-139 257h180l78 -179l76 179h180l-138 -257z" />
    <glyph glyph-name="y" unicode="y" horiz-adv-x="626" 
d="M611 532c-31 -89 -60 -170 -86 -243c-45 -124 -92 -259 -103 -289c-22 -62 -50 -149 -135 -189c-36 -15 -78 -22 -130 -22c-24 0 -47 1 -68 2v137c15 -1 30 -2 46 -2h11c27 0 46 5 58 9c23 6 35 28 35 65l-221 532h183l124 -329l106 329h180z" />
    <glyph glyph-name="z" unicode="z" horiz-adv-x="519" 
d="M281 136h206l-15 -136h-458l241 394h-209l19 138h443z" />
    <glyph glyph-name="braceleft" unicode="{" horiz-adv-x="425" 
d="M31 279c17 3 33 8 46 15c23 12 46 31 46 66c0 492 136 412 237 412h3l10 -102c-41 0 -115 65 -115 -293c0 -72 -34 -99 -55 -110c21 -8 55 -36 55 -110c0 -354 74 -293 115 -293l-10 -99h-3c-101 0 -237 -81 -237 411c0 35 -23 53 -46 65c-13 7 -29 12 -46 15v23z" />
    <glyph glyph-name="bar" unicode="|" horiz-adv-x="210" 
d="M166 -59h-120v808h120v-808z" />
    <glyph glyph-name="braceright" unicode="}" horiz-adv-x="416" 
d="M387 257c-17 -3 -33 -8 -46 -15c-23 -12 -46 -31 -46 -66c0 -492 -136 -412 -237 -412h-3l-10 102c41 -4 115 -62 115 293c0 72 33 99 55 110c-23 8 -55 36 -55 110c0 354 -74 293 -115 293l10 99h3c101 0 237 81 237 -411c0 -35 23 -55 46 -66c13 -7 29 -12 46 -14v-23z
" />
    <glyph glyph-name="asciitilde" unicode="~" horiz-adv-x="648" 
d="M32 172c-5 139 63 215 167 215c52 0 92 -14 133 -33c35 -15 63 -30 87 -30c32 0 45 13 52 73h144c5 -150 -61 -210 -169 -210c-56 0 -96 16 -139 33c-37 19 -51 27 -78 27c-29 0 -46 -25 -51 -75h-146z" />
    <glyph glyph-name="exclamdown" unicode="&#xa1;" horiz-adv-x="259" 
d="M45 619c0 19 1 44 20 59c17 15 45 17 64 17c20 0 52 -2 68 -17c17 -15 19 -42 19 -59s-2 -44 -19 -59c-16 -17 -45 -19 -68 -19c-20 0 -47 2 -64 19c-19 15 -20 40 -20 59zM61 499l-19 -495h178l-21 495h-138z" />
    <glyph glyph-name="cent" unicode="&#xa2;" horiz-adv-x="500" 
d="M205 385c-11 -7 -16 -35 -16 -85v-68c0 -46 5 -73 14 -80c12 -15 59 -22 102 -22h12c33 0 83 6 150 19h1v-134c0 -3 -31 -9 -93 -17c-11 -1 -23 -3 -38 -4v-97h-115v101c-83 12 -141 52 -172 120c-12 25 -18 69 -18 134v33c0 76 11 129 32 158c33 52 85 83 158 94v100
h115v-97c41 -3 84 -8 131 -19v-135c-60 12 -124 19 -160 19c-43 0 -88 -7 -103 -20z" />
    <glyph glyph-name="sterling" unicode="&#xa3;" horiz-adv-x="615" 
d="M405 756c60 0 116 -14 148 -29l16 -142c-29 11 -111 32 -155 32c-84 0 -112 -50 -112 -104c0 -31 5 -57 13 -88h164v-117h-148c1 -29 -2 -57 -11 -82c-12 -29 -29 -57 -58 -81v-2h318v-143h-546v92c63 26 133 93 133 170c0 16 1 31 -2 46h-119v117h96c-7 31 -8 62 -8 95
c0 141 108 236 271 236z" />
    <glyph glyph-name="yen" unicode="&#xa5;" horiz-adv-x="653" 
d="M438 307h88v-75h-96v-38h96v-74h-96l-1 -120h-218l2 120h-96v74h96v38h-96v75h90l-204 442h216l105 -281l106 281h219z" />
    <glyph glyph-name="florin" unicode="&#x192;" horiz-adv-x="587" 
d="M128 500h100l1 35c8 68 50 222 240 222c35 0 69 -6 88 -17l-25 -110c-17 7 -33 10 -53 10c-56 0 -81 -38 -88 -93l-5 -47h111v-106h-125l-26 -182c-16 -125 -60 -222 -212 -222c-48 1 -85 8 -102 17l24 106c15 -7 31 -8 50 -9c56 0 74 30 90 146l16 144h-84v106z" />
    <glyph glyph-name="section" unicode="&#xa7;" horiz-adv-x="696" 
d="M587 171c49 -41 47 -95 44 -131c-11 -71 -46 -114 -111 -141c-43 -17 -90 -24 -134 -27c-16 -3 -30 -2 -43 -2c-11 -3 -17 -2 -28 -2h-1h-5h-2c-76 3 -148 8 -197 16c-9 1 -18 2 -26 6l-18 136c41 -8 146 -23 234 -23c75 0 118 13 130 40c5 13 4 24 -2 33
c-7 15 -25 22 -50 31c-19 8 -46 15 -77 23c-48 11 -108 23 -156 47c-24 9 -44 21 -59 33c-79 71 -28 158 3 203c4 7 11 15 20 23c-3 1 -2 3 -5 4c-48 40 -49 95 -44 131c8 69 44 116 109 141c41 19 87 24 134 27c15 1 29 2 45 2h24h2h4h2c79 0 151 -7 202 -14v-2
c7 -1 17 -2 24 -3l16 -140c-38 8 -146 25 -233 25c-76 0 -118 -11 -131 -39c-5 -13 -4 -24 3 -33c5 -13 21 -24 48 -33c23 -7 50 -12 78 -19c48 -11 109 -24 157 -49c23 -9 44 -23 59 -34c77 -69 32 -159 -3 -202c-5 -9 -11 -17 -16 -22c1 -1 0 -2 3 -5zM483 273
c3 13 1 23 -8 34c-17 16 -60 31 -119 44c-33 7 -66 13 -98 18c-13 -11 -27 -23 -30 -38c-5 -11 -1 -23 8 -32c16 -19 60 -31 120 -42c31 -11 63 -16 94 -20c17 8 28 24 33 36z" />
    <glyph glyph-name="currency" unicode="&#xa4;" horiz-adv-x="651" 
d="M455 489l85 87l75 -72l-97 -80c17 -27 36 -63 36 -118c0 -59 -19 -98 -40 -125l95 -84l-73 -72l-82 95c-35 -27 -86 -43 -130 -43c-49 0 -97 15 -130 40l-83 -92l-72 72l93 83c-21 24 -40 66 -40 122c0 57 19 95 39 122l-97 79l76 73l86 -88c36 25 79 37 128 37
c52 0 98 -13 131 -36zM220 303c0 -84 56 -121 104 -121c47 0 103 39 103 124c0 67 -43 114 -103 114c-59 0 -104 -45 -104 -117z" />
    <glyph glyph-name="quotesingle" unicode="'" horiz-adv-x="243" 
d="M194 617l-69 -117l-48 -2l35 95c-19 3 -42 5 -57 20c-19 15 -20 36 -20 59s1 46 20 61c15 13 49 16 66 16c19 0 50 -2 67 -16c19 -15 19 -38 19 -61c0 -19 -4 -32 -7 -41c-2 -5 -4 -10 -6 -14z" />
    <glyph glyph-name="quotedblleft" unicode="&#x201c;" horiz-adv-x="440" 
d="M248 631l69 117l48 2l-35 -95c19 -3 42 -5 57 -20c19 -15 20 -36 20 -59s-1 -46 -20 -61c-17 -14 -49 -16 -66 -16c-19 0 -50 2 -67 16c-19 15 -19 38 -19 61c0 17 3 32 6 41c2 5 4 10 7 14zM44 631l69 117l48 2l-35 -95c19 -3 42 -5 57 -20c19 -15 20 -36 20 -59
s-1 -46 -20 -61c-17 -14 -49 -16 -66 -16c-19 0 -50 2 -67 16c-19 15 -19 38 -19 61c0 17 3 32 6 41c2 5 4 10 7 14z" />
    <glyph glyph-name="guillemotleft" unicode="&#xab;" horiz-adv-x="803" 
d="M774 -36h-209l-235 300l235 299h209l-238 -299zM475 -36h-209l-235 300l235 299h209l-238 -299z" />
    <glyph glyph-name="guilsinglleft" unicode="&#x2039;" horiz-adv-x="501" 
d="M473 -36h-209l-235 300l235 299h209l-238 -299z" />
    <glyph glyph-name="guilsinglright" unicode="&#x203a;" horiz-adv-x="513" 
d="M38 564h209l235 -300l-235 -299h-209l238 299z" />
    <glyph glyph-name="paragraph" unicode="&#xb6;" horiz-adv-x="768" 
d="M312 -55v397h-7c-94 0 -264 77 -267 242c-5 136 85 289 464 289c95 0 177 -5 226 -14v-914h-154v810h-112v-810h-150z" />
    <glyph glyph-name="quotesinglbase" unicode="&#x201a;" horiz-adv-x="240" 
d="M193 16l-69 -117l-48 -2l35 95c-19 3 -42 5 -57 20c-19 15 -20 36 -20 59s1 46 20 61c15 13 49 16 66 16c19 0 50 -2 67 -16c19 -15 19 -38 19 -61c0 -19 -4 -32 -7 -41c-2 -5 -4 -10 -6 -14z" />
    <glyph glyph-name="quotedblbase" unicode="&#x201e;" horiz-adv-x="438" 
d="M190 16l-69 -117l-48 -2l35 95c-19 3 -42 5 -57 20c-19 15 -20 36 -20 59s1 46 20 61c15 13 49 16 66 16c19 0 50 -2 67 -16c19 -15 19 -38 19 -61c0 -19 -4 -32 -7 -41c-2 -5 -4 -10 -6 -14zM394 16l-69 -117l-48 -2l35 95c-19 3 -42 5 -57 20c-19 15 -20 36 -20 59
s1 46 20 61c15 13 49 16 66 16c19 0 50 -2 67 -16c19 -15 19 -38 19 -61c0 -19 -4 -32 -7 -41c-2 -5 -4 -10 -6 -14z" />
    <glyph glyph-name="quotedblright" unicode="&#x201d;" horiz-adv-x="448" 
d="M196 617l-69 -117l-48 -2l35 95c-19 3 -42 5 -57 20c-19 15 -20 36 -20 59s1 46 20 61c15 13 49 16 66 16c19 0 50 -2 67 -16c19 -15 19 -38 19 -61c0 -19 -4 -32 -7 -41c-2 -5 -4 -10 -6 -14zM400 617l-69 -117l-48 -2l35 95c-19 3 -42 5 -57 20c-19 15 -20 36 -20 59
s1 46 20 61c15 13 49 16 66 16c19 0 50 -2 67 -16c19 -15 19 -38 19 -61c0 -19 -4 -32 -7 -41c-2 -5 -4 -10 -6 -14z" />
    <glyph glyph-name="guillemotright" unicode="&#xbb;" horiz-adv-x="812" 
d="M37 564h209l235 -300l-235 -299h-209l238 299zM336 564h209l235 -300l-235 -299h-209l238 299z" />
    <glyph glyph-name="perthousand" unicode="&#x2030;" horiz-adv-x="1020" 
d="M27 114l564 521h133l-564 -521h-133zM213 732c112 3 146 -71 146 -166c1 -109 -42 -174 -149 -171c-110 -3 -148 70 -148 169c-1 101 40 169 151 168zM212 462c43 0 65 34 65 103c0 65 -21 101 -66 101c-40 0 -66 -33 -65 -102c-1 -72 23 -102 66 -102zM521 341
c113 3 147 -68 147 -167c1 -109 -41 -172 -148 -169c-112 -3 -149 67 -149 167c0 103 39 172 150 169zM521 70c43 0 64 34 64 103c0 68 -18 103 -65 103c-40 0 -66 -32 -66 -104c0 -68 22 -102 67 -102zM838 341c112 3 146 -68 146 -167c1 -109 -41 -172 -149 -169
c-112 -3 -149 67 -149 167c0 103 40 172 152 169zM837 70c43 0 64 34 64 103s-21 103 -64 103s-67 -32 -67 -104c0 -68 22 -102 67 -102z" />
    <glyph glyph-name="questiondown" unicode="&#xbf;" horiz-adv-x="522" 
d="M261 619c0 19 3 44 20 59c15 13 47 17 66 17s49 -2 68 -17c16 -15 17 -42 17 -59s-1 -44 -17 -59c-19 -17 -45 -19 -68 -19c-21 0 -51 2 -66 19c-17 15 -20 40 -20 59zM34 208c1 -59 12 -97 29 -121c43 -57 110 -88 211 -88c64 0 140 10 200 25l13 120
c-65 -11 -142 -24 -193 -23c-41 0 -67 6 -78 18c-11 7 -17 32 -17 73c0 44 4 65 15 73c11 13 37 20 76 20h14c27 0 66 -4 126 -15v210h-163v-72c-110 -2 -182 -39 -216 -112c-11 -23 -16 -52 -17 -103v-1v-4z" />
    <glyph glyph-name="circumflex" unicode="&#x2c6;" horiz-adv-x="651" 
d="M179 396h-149l225 421h137l227 -421h-154l-141 279h-4z" />
    <glyph glyph-name="AE" unicode="&#xc6;" horiz-adv-x="1026" 
d="M746 604v-157h196l-16 -138h-180v-162h245v-147h-237h-174h-24v115h-258l-71 -115h-225l498 749h491v-145h-245zM556 552l-183 -299h183v299z" />
    <glyph glyph-name="Oslash" unicode="&#xd8;" horiz-adv-x="842" 
d="M804 373c0 -143 -38 -258 -137 -322c-57 -39 -131 -58 -231 -58h-29c-45 0 -85 5 -120 13l-57 -101l-108 60l48 89c-95 64 -132 178 -132 319v12c3 220 104 370 371 370h25c47 0 86 -5 121 -13l57 102l108 -61l-50 -90c93 -64 131 -169 134 -308v-12zM215 373
c0 -72 15 -124 44 -163l219 392c-15 3 -30 4 -45 4h-3h-5h-1h-2c-22 0 -43 -2 -63 -6h-1c-3 -1 -2 -1 -5 -2c-1 0 -2 0 -3 -1c-37 -10 -67 -30 -90 -59v1c-30 -38 -45 -93 -45 -164v-2zM626 375c0 71 -11 125 -42 164l-218 -392c18 -4 37 -6 56 -6h2h1h5c1 0 2 0 3 1
c67 0 117 21 150 64c31 39 43 94 43 167v2z" />
    <glyph glyph-name="OE" unicode="&#x152;" horiz-adv-x="910" 
d="M631 603v-157h195l-16 -137h-179v-164h245v-145h-433c-27 -4 -57 -7 -89 -7c-77 0 -141 14 -192 41c-53 29 -91 72 -116 131c-17 35 -25 98 -25 186v49c0 105 14 177 42 216c25 42 58 74 99 96c51 29 115 43 192 43c31 0 60 -2 86 -6v1h436v-147h-245zM238 181
c17 -23 56 -36 116 -38c38 1 67 7 86 16v429c-21 8 -49 14 -86 15c-57 -2 -94 -13 -113 -33c-19 -11 -34 -58 -34 -141v-114c0 -77 14 -122 31 -134z" />
    <glyph glyph-name="ae" unicode="&#xe6;" horiz-adv-x="817" 
d="M764 434c11 -31 18 -69 18 -120v-92v-3h-299v-16c0 -36 12 -58 36 -66c12 -4 30 -7 58 -7h13c55 0 113 6 177 19h2v-134c0 -2 -27 -7 -82 -16c-36 -4 -77 -6 -122 -6c-82 0 -143 19 -184 57c-11 -5 -24 -10 -37 -17c-53 -26 -105 -39 -154 -39h-15c-49 0 -88 19 -117 57
c-19 29 -28 60 -28 99v4c0 64 22 107 67 129c19 13 67 19 142 19h77v18c0 37 -5 57 -16 62c-11 9 -32 14 -63 14h-154l15 138h167c60 0 106 -10 137 -26c13 7 24 12 35 17c36 12 73 17 112 17c111 0 183 -36 215 -108zM316 192h-55c-33 0 -52 -3 -58 -10
c-6 -6 -9 -15 -9 -28c0 -29 15 -44 45 -44c23 0 48 7 77 22v60zM618 339c0 37 -8 59 -23 66c-12 8 -27 12 -45 12c-45 0 -67 -21 -67 -62v-25h135v9z" />
    <glyph glyph-name="oslash" unicode="&#xf8;" horiz-adv-x="645" 
d="M505 523c76 -51 103 -137 102 -241c3 -185 -81 -292 -288 -289c-39 -1 -75 3 -107 11l-37 -67l-72 41l32 58c-73 48 -102 134 -102 242c0 174 78 289 290 286c40 1 75 -2 105 -9l37 64l73 -39zM182 278c-1 -48 8 -86 26 -113l155 273c-11 3 -25 4 -41 4h-1h-1h-1h-1
c-49 0 -84 -15 -107 -46c-21 -27 -30 -67 -29 -116v-1v-1zM458 280c0 49 -9 86 -26 112l-154 -272c13 -3 27 -5 40 -5h1h1h1h1c49 0 84 15 107 46c19 26 29 65 29 117v1v1z" />
    <glyph glyph-name="oe" unicode="&#x153;" horiz-adv-x="834" 
d="M780 433c12 -28 18 -68 18 -121v-93h-300v-16c0 -35 12 -58 35 -65c13 -4 32 -7 59 -7h12c56 0 114 5 178 17h3v-132c0 -1 -28 -7 -84 -17c-36 -3 -75 -6 -119 -6c-69 0 -125 14 -166 41c-11 -7 -20 -12 -31 -16c-35 -15 -78 -23 -131 -23c-109 0 -180 35 -214 105
c-16 31 -23 68 -23 108v121c0 102 45 168 134 198c31 8 61 13 96 13h17c61 0 110 -12 149 -37c11 9 25 16 40 21c36 12 73 17 112 17c111 0 182 -36 215 -108zM330 323c0 42 -12 67 -36 75c-11 3 -20 4 -31 4h-14c-31 0 -52 -12 -63 -35c-3 -8 -4 -20 -4 -33v-135
c0 -45 24 -68 72 -68h4c39 0 62 16 69 48c2 9 3 20 3 35v109zM633 339c0 37 -7 59 -22 67s-26 12 -45 12c-45 0 -68 -22 -68 -65v-23h135v9z" />
    <glyph glyph-name="germandbls" unicode="&#xdf;" horiz-adv-x="649" 
d="M40 0v466c0 121 28 198 85 249c48 43 93 63 209 63c139 0 242 -77 245 -200s-84 -158 -89 -174c-11 -24 9 -33 37 -60c39 -39 89 -87 89 -170c0 -111 -82 -185 -230 -185c-43 0 -91 4 -122 16l20 123c23 -11 50 -16 82 -16c47 0 75 23 75 55c0 27 -14 47 -41 74
c-35 38 -100 82 -87 154c11 52 99 86 99 170c0 51 -34 87 -87 87c-75 0 -113 -43 -113 -173v-479h-172z" />
    <glyph glyph-name="mu" unicode="&#xb5;" horiz-adv-x="546" 
d="M512 532v-525h-136c-1 3 -3 6 -5 9c-3 7 -7 14 -10 25c-12 -5 -63 -38 -144 -41c-7 0 -12 -1 -17 -1v-200h-166v733h166v-333c0 -34 15 -54 45 -60c10 -2 21 -3 32 -2c19 1 44 7 71 23v372h164z" />
    <glyph glyph-name="trademark" unicode="&#x2122;" horiz-adv-x="741" 
d="M295 696v-72h-85v-228h-93v228h-83v72h261zM617 396c-5 219 -6 220 -6 249l-59 -243h-87l-53 243c0 -21 -2 -83 -5 -140c-2 -33 -4 -70 -5 -109h-84l18 300h140c5 -23 9 -46 14 -68c8 -37 16 -79 20 -103l43 171h137l16 -300h-89z" />
    <glyph glyph-name="Eth" unicode="&#xd0;" horiz-adv-x="769" 
d="M691 612c27 -48 42 -110 42 -217v-47c0 -89 -10 -148 -25 -187c-43 -112 -147 -168 -308 -168c-83 0 -153 1 -204 2c-30 1 -57 1 -82 2v328h-110v90h110v331c46 0 89 0 128 1c67 0 138 2 157 2c171 0 252 -62 292 -137zM547 419c0 83 -14 125 -34 146
c-21 22 -65 33 -132 33c-23 0 -52 -1 -81 -4v-179h105v-90h-105v-181c24 -3 49 -4 66 -4h20c68 0 112 14 131 37c13 15 30 51 30 127v115z" />
    <glyph glyph-name="plusminus" unicode="&#xb1;" horiz-adv-x="598" 
d="M560 319h-190v-190h-138v190h-190v137h190v189h138v-189h190v-137zM560 83h-518v-137h518v137z" />
    <glyph glyph-name="Thorn" unicode="&#xde;" horiz-adv-x="702" 
d="M43 819h195v-154c23 3 49 4 105 4c103 0 181 -21 238 -70c51 -45 83 -112 83 -189c0 -212 -154 -295 -338 -295c-43 0 -69 5 -88 8v-170h-195v866zM238 274c19 -3 45 -6 80 -6c108 0 153 52 153 128c0 81 -53 123 -149 123c-43 0 -69 -3 -84 -6v-239z" />
    <glyph glyph-name="divide" unicode="&#xf7;" horiz-adv-x="891" 
d="M379 426c-19 15 -19 41 -19 60c0 16 0 45 19 61c15 16 46 17 67 17c23 0 51 -1 68 -17c15 -16 17 -42 17 -61s-2 -45 -17 -60c-17 -15 -49 -16 -68 -16s-52 1 -67 16zM514 105c15 -15 17 -40 17 -59c0 -20 -2 -44 -17 -61c-17 -15 -49 -18 -68 -18s-52 3 -67 18
c-19 17 -19 41 -19 61c0 19 0 44 19 59c15 15 46 19 67 19c23 0 51 -4 68 -19zM850 324v-118h-807v118h807z" />
    <glyph glyph-name="degree" unicode="&#xb0;" horiz-adv-x="426" 
d="M214 696c115 0 173 -74 173 -166c0 -93 -66 -167 -174 -167c-112 0 -177 74 -177 161c0 96 62 172 178 172zM212 451c43 0 67 35 67 79c0 41 -25 80 -69 80s-67 -41 -67 -80c0 -43 24 -79 69 -79z" />
    <glyph glyph-name="thorn" unicode="&#xfe;" horiz-adv-x="729" 
d="M692 264c0 -211 -128 -327 -262 -324c-81 0 -139 23 -190 62v-269h-199v1062h199v-270c51 39 109 61 190 61c134 3 262 -114 262 -322zM362 107c80 0 129 70 132 157c-3 88 -52 156 -132 156c-45 0 -86 -27 -109 -66c-21 -39 -22 -140 0 -181c23 -43 64 -66 109 -66z" />
    <glyph glyph-name="registered" unicode="&#xae;" horiz-adv-x="510" 
d="M345 520c11 -32 16 -61 23 -72h-54c-3 8 -11 29 -18 61c-7 27 -24 34 -53 37h-28v-98h-53v254c21 4 51 6 82 6c41 0 70 -7 89 -21c12 -9 25 -30 25 -51c0 -35 -13 -63 -52 -74v-1c20 -8 32 -14 39 -41zM248 580c43 0 61 27 58 50c-3 28 -22 42 -57 42
c-19 0 -27 -1 -34 -1v-91h33zM256 789c120 0 217 -97 217 -216c0 -120 -97 -218 -217 -218s-217 98 -217 218c0 119 97 216 217 216zM256 392c100 0 180 81 180 181c0 99 -80 179 -180 179c-99 0 -181 -80 -181 -179c0 -100 82 -181 181 -181z" />
    <glyph glyph-name="eth" unicode="&#xf0;" horiz-adv-x="674" 
d="M586 529c33 -64 48 -139 48 -219c0 -220 -150 -317 -301 -317c-168 0 -299 113 -299 294c0 168 126 272 273 277c45 3 66 -3 77 -8c-27 33 -57 64 -93 88l-170 -74l-32 71l124 55c-35 24 -71 42 -110 59l78 99c61 -23 126 -54 185 -93l163 70l36 -68l-124 -55
c60 -49 110 -111 145 -179zM334 122c92 0 137 64 137 160c0 59 -9 93 -34 116c-23 23 -56 36 -101 36c-107 0 -141 -88 -141 -156c0 -85 48 -156 139 -156z" />
    <glyph glyph-name="multiply" unicode="&#xd7;" horiz-adv-x="623" 
d="M421 265l169 -168l-108 -109l-170 169l-168 -169l-107 109l169 168l-169 168l107 108l168 -169l170 169l108 -108z" />
    <glyph glyph-name="copyright" unicode="&#xa9;" horiz-adv-x="513" 
d="M263 181c-56 0 -91 15 -104 54c-5 7 -9 22 -9 58v19c0 41 6 59 13 67h1v1c17 28 50 42 99 42c23 0 47 -1 74 -8v-41c-28 4 -50 7 -65 7c-24 0 -40 -4 -49 -12c-8 -7 -14 -22 -14 -50v-34c0 -25 4 -40 12 -47c7 -9 24 -14 50 -14h6c15 0 33 1 60 6v-42c-4 0 -15 -2 -34 -5
c-11 -1 -25 -1 -40 -1zM471 302c0 -120 -98 -218 -216 -218c-121 0 -217 98 -217 218c0 119 96 216 217 216c118 0 216 -97 216 -216zM435 302c0 99 -80 179 -180 179s-181 -80 -181 -179c0 -100 81 -181 181 -181s180 81 180 181z" />
    <glyph glyph-name="Aacute" unicode="&#xc1;" horiz-adv-x="757" 
d="M435 970h125l-135 -179h-89zM485 749h-210l-273 -749h212l35 115h261l35 -115h211zM284 253l95 322l96 -322h-191z" />
    <glyph glyph-name="Acircumflex" unicode="&#xc2;" horiz-adv-x="757" 
d="M435 931l107 -140h-107l-57 69l-56 -69h-108l108 140h113zM755 0h-212l-35 115h-260l-35 -115h-211l271 749h210zM473 253l-95 322l-96 -322h191z" />
    <glyph glyph-name="Adieresis" unicode="&#xc4;" horiz-adv-x="756" 
d="M559 876c0 -16 -2 -37 -17 -48c-12 -13 -38 -15 -53 -15s-40 2 -53 15c-15 11 -16 32 -16 48c0 15 1 36 16 47c13 12 34 14 53 14s41 -2 53 -14c15 -11 17 -32 17 -47zM334 876c0 -16 -1 -37 -16 -48c-12 -13 -39 -15 -54 -15s-39 2 -54 15c-13 11 -15 32 -15 48
c0 15 2 36 15 47c15 12 35 14 54 14s42 -2 54 -14c15 -11 16 -32 16 -47zM482 749h-210l-271 -749h210l35 115h261l35 -115h212zM281 253l96 322l95 -322h-191z" />
    <glyph glyph-name="Agrave" unicode="&#xc0;" horiz-adv-x="757" 
d="M421 791h-88l-134 179h124zM484 749h-209l-272 -749h211l35 115h261l35 -115h211zM284 253l95 322l95 -322h-190z" />
    <glyph glyph-name="Aring" unicode="&#xc5;" horiz-adv-x="760" 
d="M757 0h-213l-34 116h-261l-34 -116h-213l273 749h209zM476 254l-95 322l-97 -322h192zM382 970c75 0 111 -44 111 -100c0 -52 -41 -96 -112 -96c-72 0 -114 44 -114 95c0 57 39 101 115 101zM380 825c29 0 44 20 44 45s-14 50 -45 50c-28 0 -42 -26 -42 -50
c0 -23 15 -45 43 -45z" />
    <glyph glyph-name="Atilde" unicode="&#xc3;" horiz-adv-x="757" 
d="M221 783c-4 76 34 116 91 116c27 0 49 -9 72 -17c17 -8 32 -17 47 -17c19 0 26 8 29 39h77c3 -83 -31 -114 -91 -114c-31 0 -53 10 -76 19c-21 8 -28 13 -43 13s-24 -13 -26 -39h-80zM484 749h-210l-272 -749h211l36 115h261l34 -115h211zM283 253l96 322l95 -322h-191z
" />
    <glyph glyph-name="Ccedilla" unicode="&#xc7;" horiz-adv-x="597" 
d="M258 568c-19 -11 -35 -62 -35 -146v-115c0 -76 16 -111 31 -126c18 -25 62 -38 133 -38h17c36 0 86 6 157 17v-148c-20 -4 -45 -8 -78 -12c-31 -5 -66 -7 -107 -7l-14 -26c35 -8 65 -30 65 -69c0 -62 -55 -83 -106 -83c-27 0 -54 5 -74 17l17 54c13 -7 34 -13 49 -13
c19 0 32 6 32 23s-21 26 -69 33l30 67c-123 13 -202 70 -245 169c-19 36 -25 95 -25 186v49c0 107 12 177 43 216c53 91 151 137 294 137c59 0 120 -5 188 -20v-148c-74 12 -131 18 -170 18c-68 0 -112 -10 -133 -35z" />
    <glyph glyph-name="Eacute" unicode="&#xc9;" horiz-adv-x="507" 
d="M227 604v-157h194l-16 -138h-178v-164h245v-145h-436v749h436v-145h-245zM305 969h126l-136 -177h-88z" />
    <glyph glyph-name="Ecircumflex" unicode="&#xca;" horiz-adv-x="507" 
d="M311 931l108 -139h-108l-57 67l-54 -67h-109l109 139h111zM229 604v-157h194l-16 -138h-178v-164h243v-145h-435v749h435v-145h-243z" />
    <glyph glyph-name="Edieresis" unicode="&#xcb;" horiz-adv-x="507" 
d="M471 603v146h-435v-749h435v145h-244v165h179l17 136h-196v157h244zM433 874c0 -15 -3 -35 -16 -46c-15 -13 -39 -16 -55 -16c-15 0 -40 3 -52 16c-15 11 -17 31 -17 46s2 37 17 48c12 12 35 14 52 14c19 0 40 -2 55 -14c13 -11 16 -33 16 -48zM208 874
c0 -15 -2 -35 -17 -46c-13 -13 -37 -16 -52 -16c-16 0 -42 3 -54 16c-15 11 -16 31 -16 46s1 37 16 48c12 12 35 14 54 14c17 0 39 -2 52 -14c15 -11 17 -33 17 -48z" />
    <glyph glyph-name="Egrave" unicode="&#xc8;" horiz-adv-x="507" 
d="M317 792h-88l-135 177h125zM472 604v145h-436v-749h436v145h-245v164h178l16 138h-194v157h245z" />
    <glyph glyph-name="Iacute" unicode="&#xcd;" horiz-adv-x="318" 
d="M228 749v-410v-339h-193v749h193zM192 971h125l-134 -178h-90z" />
    <glyph glyph-name="Icircumflex" unicode="&#xce;" horiz-adv-x="368" 
d="M280 749v-410v-339h-193v749h193zM239 932l109 -140h-109l-55 69l-56 -69h-109l109 140h111z" />
    <glyph glyph-name="Idieresis" unicode="&#xcf;" horiz-adv-x="398" 
d="M379 874c0 -15 -2 -35 -15 -47c-12 -12 -38 -15 -53 -15c-17 0 -41 3 -54 15c-15 12 -17 32 -17 47s2 37 17 48c13 12 35 14 54 14s41 -2 53 -14c13 -11 15 -33 15 -48zM156 874c0 -15 -2 -35 -18 -47c-12 -12 -37 -15 -52 -15c-16 0 -41 3 -53 15c-15 12 -16 32 -16 47
s1 37 16 48c12 12 34 14 53 14c17 0 40 -2 52 -14c16 -11 18 -33 18 -48zM102 749v-749h191v339v410h-191z" />
    <glyph glyph-name="Igrave" unicode="&#xcc;" horiz-adv-x="312" 
d="M277 749v-410v-339h-193v749h193zM224 793h-88l-137 178h126z" />
    <glyph glyph-name="Ntilde" unicode="&#xd1;" horiz-adv-x="673" 
d="M178 783c-4 76 35 116 91 116c28 0 49 -9 72 -17c19 -8 34 -17 47 -17c19 0 25 8 29 39h78c3 -83 -32 -114 -92 -114c-31 0 -53 10 -76 19c-20 8 -27 13 -42 13c-16 0 -25 -13 -27 -39h-80zM450 749v-395l-227 395h-192v-749h192v399l227 -399h192v339v410h-192z" />
    <glyph glyph-name="Oacute" unicode="&#xd3;" horiz-adv-x="693" 
d="M398 968h124l-134 -178h-89zM634 615c-23 43 -57 74 -98 97c-51 27 -112 41 -191 41c-75 0 -138 -14 -191 -41c-40 -23 -73 -55 -98 -97c-29 -39 -43 -111 -43 -217v-49c0 -88 9 -148 25 -184c25 -60 64 -100 116 -131c52 -27 116 -41 191 -42c79 1 140 15 191 42
c52 31 92 71 117 131c17 35 25 97 25 184v49c0 107 -15 179 -44 217zM230 181c-16 12 -31 57 -31 133v114c0 83 16 129 35 140c19 21 56 33 111 35c55 -2 93 -14 112 -35c17 -11 31 -60 31 -144v-114c0 -76 -13 -117 -28 -129c-16 -23 -54 -36 -115 -37
c-60 1 -98 13 -115 37z" />
    <glyph glyph-name="Ocircumflex" unicode="&#xd4;" horiz-adv-x="693" 
d="M404 931l107 -139h-107l-57 67l-56 -67h-108l108 139h113zM638 616c27 -39 41 -112 41 -219v-48c0 -87 -8 -149 -24 -185c-25 -59 -64 -103 -117 -131c-51 -27 -114 -40 -190 -41c-77 1 -141 15 -191 41c-53 29 -92 73 -116 131c-17 35 -26 96 -26 185v48
c0 109 14 182 43 219c25 43 58 75 99 96c51 28 114 42 191 42s140 -14 190 -42c42 -22 75 -54 100 -96zM491 426c0 81 -13 132 -32 145c-19 19 -56 30 -111 32c-56 -2 -93 -13 -111 -32c-19 -13 -36 -60 -36 -141v-117c0 -76 15 -120 32 -132c15 -23 54 -36 115 -38
c60 2 98 15 115 38c16 12 28 51 28 128v117z" />
    <glyph glyph-name="Odieresis" unicode="&#xd6;" horiz-adv-x="697" 
d="M530 874c0 -16 -1 -37 -16 -48c-12 -12 -37 -14 -52 -14c-16 0 -42 2 -55 14c-13 11 -15 33 -15 48s2 36 15 47c13 13 36 15 55 15c17 0 40 -2 52 -15c15 -11 16 -32 16 -47zM307 874c0 -16 -2 -37 -17 -48c-13 -12 -39 -14 -54 -14s-40 2 -53 14c-15 11 -16 33 -16 48
s1 36 16 47c13 13 34 15 53 15c17 0 41 -2 54 -15c15 -11 17 -32 17 -47zM539 712c-49 27 -113 42 -190 43c-77 -1 -141 -16 -192 -43c-42 -25 -75 -58 -98 -97c-29 -40 -43 -112 -43 -217v-47c0 -89 9 -151 27 -187c23 -57 61 -101 114 -131c51 -27 115 -40 192 -40
s141 13 190 40c55 30 94 74 117 131c17 37 25 100 25 187v47c0 106 -14 178 -43 217c-23 40 -56 72 -99 97zM492 310c0 -76 -12 -118 -27 -130c-17 -23 -56 -35 -116 -37c-61 2 -99 14 -116 37c-16 12 -31 58 -31 134v113c0 84 16 129 35 141c19 21 56 32 112 34
c55 -2 92 -13 112 -34c19 -12 31 -61 31 -145v-113z" />
    <glyph glyph-name="Ograve" unicode="&#xd2;" horiz-adv-x="689" 
d="M390 790h-87l-135 178h124zM13 398v-49c0 -88 7 -148 24 -184c25 -60 65 -100 117 -131c51 -27 112 -41 191 -42c76 1 139 15 189 42c54 29 93 73 118 131c16 36 24 97 24 184v49c0 107 -14 179 -41 217c-25 42 -59 74 -101 97c-51 27 -114 41 -189 41
c-79 0 -140 -14 -191 -41c-42 -24 -75 -56 -100 -97c-27 -38 -41 -110 -41 -217zM345 144c-60 1 -100 13 -115 37c-19 12 -29 53 -29 129v114c0 84 11 132 32 144c19 21 57 33 112 35c56 -3 92 -14 112 -35c19 -11 34 -57 34 -140v-114c0 -76 -15 -121 -31 -133
c-17 -24 -55 -36 -115 -37z" />
    <glyph glyph-name="Otilde" unicode="&#xd5;" horiz-adv-x="696" 
d="M190 783c-4 76 34 116 91 116c28 0 49 -9 72 -17c19 -8 32 -17 47 -17c19 0 25 8 29 39h78c3 -83 -32 -114 -92 -114c-31 0 -53 10 -76 19c-21 8 -27 13 -42 13c-16 0 -25 -13 -27 -39h-80zM639 616c-25 42 -58 74 -100 97c-51 28 -114 41 -191 42
c-77 -1 -140 -14 -191 -42c-42 -23 -75 -55 -100 -97c-28 -38 -42 -110 -42 -217v-49c0 -87 8 -149 25 -184c25 -59 64 -103 117 -132c51 -27 115 -41 191 -41s140 14 191 41c53 29 92 73 117 132c17 35 25 97 25 184v49c0 107 -14 179 -42 217zM492 310
c0 -76 -12 -117 -29 -130c-16 -22 -54 -34 -115 -36c-61 2 -99 14 -115 36c-16 13 -32 58 -32 134v115c0 84 17 129 36 141c17 20 54 31 111 33c57 -2 95 -13 112 -33c19 -12 32 -61 32 -145v-115z" />
    <glyph glyph-name="Scaron" unicode="&#x160;" horiz-adv-x="631" 
d="M262 790l-108 140h108l55 -69l56 69h109l-109 -140h-111zM291 -8c-87 0 -175 14 -224 25l-15 166c37 -8 141 -30 225 -30c70 0 111 16 124 49c4 14 3 27 -2 39c-15 31 -61 43 -121 62c-64 19 -142 40 -191 89c-47 47 -47 115 -42 156c9 84 43 138 106 171
c53 27 115 33 171 34c7 0 16 1 25 1c75 0 147 -11 195 -18l16 -164c-32 8 -118 22 -191 22c-76 0 -120 -16 -132 -49c-5 -14 -5 -27 1 -39c16 -32 66 -48 131 -67c66 -19 140 -41 180 -84c48 -51 48 -113 43 -156c-9 -84 -44 -138 -105 -171c-55 -28 -114 -34 -170 -35
c-7 0 -16 -1 -24 -1z" />
    <glyph glyph-name="Uacute" unicode="&#xda;" horiz-adv-x="736" 
d="M419 971h125l-136 -178h-88zM513 749v-439c0 -76 -11 -116 -30 -128c-15 -23 -53 -36 -114 -38c-61 2 -100 15 -117 38c-16 12 -31 56 -31 132v435h-186v-400c0 -85 9 -147 24 -186c25 -56 66 -102 117 -129c50 -27 114 -41 193 -41c76 0 139 13 190 41
c56 27 94 73 118 129c17 39 26 101 26 186v400h-190z" />
    <glyph glyph-name="Ucircumflex" unicode="&#xdb;" horiz-adv-x="732" 
d="M219 749v-439c0 -76 13 -116 29 -128c15 -23 54 -36 117 -38c61 2 100 15 115 38c16 12 31 56 31 132v435h186v-400c0 -85 -8 -147 -25 -186c-27 -56 -64 -102 -116 -129c-51 -27 -114 -41 -191 -41c-78 0 -142 14 -193 41c-53 27 -92 73 -115 129
c-17 39 -24 101 -24 186v400h186zM421 933l107 -140h-107l-56 68l-57 -68h-109l109 140h113z" />
    <glyph glyph-name="Udieresis" unicode="&#xdc;" horiz-adv-x="744" 
d="M515 749v-439c0 -76 -12 -116 -29 -128c-17 -23 -55 -36 -116 -38c-61 2 -100 15 -115 38c-15 12 -31 56 -31 132v435h-186v-400c0 -85 6 -147 25 -186c25 -56 64 -102 117 -129c49 -27 112 -41 190 -41c77 0 141 13 192 41c52 27 92 73 117 129c16 38 24 100 24 186v400
h-188zM552 876c0 -15 -2 -36 -15 -47c-13 -12 -38 -14 -55 -14c-15 0 -41 2 -54 14c-15 11 -15 32 -15 47s0 37 15 49c13 12 38 14 54 14c19 0 42 -2 55 -14s15 -34 15 -49zM326 876c0 -15 -3 -36 -16 -47c-13 -12 -38 -14 -53 -14c-13 0 -38 2 -53 14c-15 11 -16 32 -16 47
s1 37 16 49s37 14 53 14c19 0 40 -2 53 -14s16 -34 16 -49z" />
    <glyph glyph-name="Ugrave" unicode="&#xd9;" horiz-adv-x="736" 
d="M415 793h-86l-137 178h127zM35 749v-400c0 -87 8 -149 25 -186c24 -56 63 -102 115 -129c50 -27 114 -41 192 -41c75 0 139 14 191 41c56 27 93 73 118 129c17 39 26 101 26 186v400h-188v-435c0 -76 -17 -120 -33 -132c-15 -23 -53 -36 -114 -38c-59 2 -98 15 -117 38
c-15 12 -26 52 -26 128v439h-189z" />
    <glyph glyph-name="Yacute" unicode="&#xdd;" horiz-adv-x="625" 
d="M369 968h125l-135 -178h-88zM622 749h-210l-100 -309l-100 309h-209l203 -516l-92 -233h208z" />
    <glyph glyph-name="Ydieresis" unicode="&#x178;" horiz-adv-x="625" 
d="M493 873c0 -15 -2 -35 -15 -46c-13 -13 -39 -16 -54 -16c-16 0 -40 3 -53 16c-15 11 -16 31 -16 46s1 37 16 48c13 12 34 14 53 14s41 -2 54 -14c13 -11 15 -33 15 -48zM269 873c0 -15 -3 -35 -16 -46c-13 -13 -38 -16 -53 -16s-42 3 -54 16c-13 11 -15 31 -15 46
s2 37 15 48c12 12 37 14 54 14s40 -2 53 -14c13 -11 16 -33 16 -48zM622 749h-209l-101 -309l-100 309h-210l204 -516l-93 -233h209z" />
    <glyph glyph-name="Zcaron" unicode="&#x17d;" horiz-adv-x="640" 
d="M282 790l-108 140h108l55 -69l57 69h109l-109 -140h-112zM583 1h-573l331 603h-284l17 145h553l-323 -598h299z" />
    <glyph glyph-name="aacute" unicode="&#xe1;" 
d="M457 453c-25 53 -90 80 -193 80h-167l-15 -138h154c30 0 51 -5 64 -14c10 -4 15 -24 15 -61v-18h-77c-75 0 -122 -7 -141 -20c-45 -21 -68 -64 -68 -128v-4c0 -39 10 -72 29 -100c29 -37 67 -56 116 -56h15c50 0 99 13 147 39c1 -9 3 -16 5 -23c1 -3 3 -7 4 -10h134v328
c0 53 -7 95 -22 125zM315 131c-29 -14 -55 -21 -77 -21c-30 0 -45 15 -45 44c0 13 3 23 8 28c6 7 26 10 59 10h55v-61zM285 749h125l-135 -178h-89z" />
    <glyph glyph-name="acircumflex" unicode="&#xe2;" 
d="M458 453c-26 53 -91 80 -195 80h-165l-14 -138h152c31 0 52 -5 63 -14c10 -4 15 -24 15 -61v-18h-76c-73 0 -119 -7 -140 -20c-46 -21 -69 -64 -69 -128v-4c0 -37 10 -71 29 -100c29 -37 68 -56 117 -56h15c49 0 98 13 146 39c1 -9 3 -16 5 -23c1 -3 2 -7 3 -10h135
l1 328c0 53 -7 94 -22 125zM314 131c-28 -14 -53 -21 -76 -21c-29 0 -44 15 -44 44c0 13 3 23 8 28c6 7 25 10 57 10h55v-61zM327 721l108 -139h-108l-57 68l-56 -68h-107l107 139h113z" />
    <glyph glyph-name="adieresis" unicode="&#xe4;" 
d="M457 453c-25 53 -90 80 -193 80h-167l-14 -138h155c30 0 51 -5 62 -14c11 -4 16 -24 16 -61v-18h-76c-75 0 -122 -7 -143 -20c-45 -21 -67 -63 -67 -128v-4c0 -38 9 -71 28 -100c29 -37 67 -56 116 -56h15c51 0 100 13 148 39c1 -9 3 -16 5 -23c1 -3 2 -7 3 -10h133
l1 328c0 53 -7 94 -22 125zM316 131c-29 -14 -55 -21 -76 -21c-30 0 -45 15 -45 44c0 13 3 23 8 28c6 7 25 10 58 10h55v-61zM443 648c0 -15 -2 -36 -15 -48c-12 -12 -38 -14 -53 -14c-16 0 -41 2 -53 14c-15 12 -17 33 -17 48s2 36 17 48c12 12 34 14 53 14
c17 0 41 -2 53 -14c13 -12 15 -33 15 -48zM219 648c0 -15 -2 -36 -15 -48c-15 -12 -39 -14 -54 -14c-16 0 -41 2 -54 14c-15 12 -16 33 -16 48s1 36 16 48c13 12 35 14 54 14c17 0 39 -2 54 -14c13 -12 15 -33 15 -48z" />
    <glyph glyph-name="agrave" unicode="&#xe0;" 
d="M457 453c-26 53 -91 80 -194 80h-167l-14 -138h155c30 0 51 -5 62 -14c11 -4 16 -24 16 -61v-18h-76c-75 0 -122 -7 -143 -20c-45 -21 -67 -63 -67 -128v-4c0 -38 9 -71 28 -100c29 -37 68 -56 117 -56h16c49 0 98 13 146 39c1 -9 3 -16 5 -23c1 -3 2 -7 3 -10h134v328
c0 52 -7 94 -21 125zM315 131c-29 -14 -55 -21 -76 -21c-30 0 -45 15 -45 44c0 13 3 23 8 28c6 7 25 10 57 10h56v-61zM308 571h-88l-136 178h126z" />
    <glyph glyph-name="aring" unicode="&#xe5;" 
d="M459 455c14 -32 21 -74 21 -127v-329h-137c-1 3 -2 7 -3 10c-2 7 -4 14 -5 23c-47 -25 -95 -38 -146 -38h-15c-49 0 -87 18 -115 55c-20 31 -28 64 -28 101v4c0 64 21 108 66 127c20 15 67 21 139 21h79v16c0 39 -6 60 -17 64c-11 9 -32 13 -63 13h-152l15 138h164
c104 0 170 -26 197 -78zM315 192h-56c-31 0 -50 -3 -57 -9c-6 -6 -9 -16 -9 -29c0 -29 15 -44 45 -44c21 0 46 7 77 22v60zM268 753c75 0 113 -43 113 -99c0 -53 -43 -96 -114 -96s-113 43 -113 96c0 56 41 99 114 99zM267 608c27 0 43 19 43 46c0 25 -16 49 -44 49
c-31 0 -44 -25 -44 -49s16 -46 45 -46z" />
    <glyph glyph-name="atilde" unicode="&#xe3;" 
d="M106 573c-4 76 35 117 91 117c27 0 49 -9 72 -18c17 -7 32 -16 47 -16c19 0 26 8 29 39h78c3 -83 -32 -114 -91 -114c-32 0 -54 10 -77 18c-21 9 -28 14 -43 14s-24 -13 -26 -40h-80zM460 455c-26 51 -91 77 -194 77h-166l-15 -137h154c29 0 50 -4 62 -13
c11 -5 17 -26 17 -63v-17h-77c-74 0 -121 -7 -142 -20c-45 -21 -68 -64 -68 -128v-4c0 -37 10 -70 30 -99c28 -38 66 -57 115 -57h16c49 0 98 13 147 39c1 -9 3 -16 5 -23c1 -3 2 -7 3 -10h135v327c0 54 -7 97 -22 128zM318 132c-29 -15 -55 -22 -77 -22
c-30 0 -45 15 -45 44c0 11 3 20 8 27c7 7 26 10 58 10h56v-59z" />
    <glyph glyph-name="ccedilla" unicode="&#xe7;" horiz-adv-x="479" 
d="M216 406c-11 -7 -17 -35 -17 -84v-68c0 -45 5 -72 15 -80c10 -15 36 -22 77 -22h11c29 0 75 6 142 19h1v-134c0 -2 -30 -8 -89 -17c-15 -3 -33 -4 -52 -4l-13 -26c33 -8 65 -30 65 -71c0 -62 -56 -83 -107 -83c-25 0 -54 6 -74 17l17 55c13 -7 33 -12 49 -12
c19 0 31 5 31 22c0 19 -18 28 -69 33l31 66c-90 8 -151 49 -182 122c-12 25 -18 69 -18 133v35c0 75 10 127 30 156c39 67 110 101 211 101c54 0 111 -7 170 -22v-134h-3c-68 12 -114 17 -149 17c-39 0 -66 -4 -77 -19z" />
    <glyph glyph-name="eacute" unicode="&#xe9;" horiz-adv-x="536" 
d="M324 749h126l-136 -178h-88zM482 434c-31 71 -102 106 -213 106c-37 0 -75 -6 -113 -17c-79 -31 -119 -94 -119 -187v-127c0 -32 7 -65 19 -97c35 -80 111 -120 228 -120c45 0 85 2 121 6c55 10 83 16 83 17v132h-1c-64 -12 -123 -18 -178 -18h-13c-26 0 -45 3 -58 8
c-24 7 -36 28 -36 65v16h299v2v92c0 51 -6 92 -19 122zM337 328h-135v25c0 43 23 64 68 64c18 0 33 -4 45 -12c15 -9 22 -31 22 -68v-9z" />
    <glyph glyph-name="ecircumflex" unicode="&#xea;" horiz-adv-x="536" 
d="M325 721l108 -138h-108l-57 67l-55 -67h-108l108 138h112zM481 434c-32 71 -103 106 -213 106c-39 0 -74 -6 -113 -17c-79 -31 -118 -93 -118 -187v-127c0 -32 7 -65 19 -97c34 -80 110 -120 228 -120c45 0 85 2 120 6c55 10 83 16 83 17v132h-2
c-63 -12 -123 -18 -178 -18h-12c-26 0 -45 3 -58 8c-23 7 -35 29 -35 65v16h298v2v92c0 51 -6 92 -19 122zM336 328h-134v25c0 43 22 64 67 64c17 0 32 -4 45 -12c15 -9 22 -31 22 -68v-9z" />
    <glyph glyph-name="edieresis" unicode="&#xeb;" horiz-adv-x="536" 
d="M448 649c0 -15 0 -36 -15 -47c-12 -13 -38 -15 -53 -15s-40 2 -53 15c-15 11 -16 32 -16 47s1 35 16 46c13 13 36 15 53 15c19 0 41 -2 53 -15c15 -11 15 -31 15 -46zM226 649c0 -15 -2 -36 -17 -47c-13 -13 -37 -15 -52 -15c-17 0 -41 2 -54 15c-15 11 -17 32 -17 47
s2 35 17 46c13 13 35 15 54 15c16 0 39 -2 52 -15c15 -11 17 -31 17 -46zM480 433c-32 71 -103 107 -214 107c-37 0 -75 -4 -112 -16c-77 -31 -118 -93 -118 -186v-127c0 -33 7 -65 20 -98c35 -80 110 -120 227 -120c44 0 85 2 120 7c55 9 82 15 82 18v129l-1 1
c-64 -12 -122 -17 -178 -17h-12c-27 0 -46 2 -57 7c-25 7 -38 29 -38 66v15h298l3 3v92c0 51 -8 90 -20 119zM335 329h-136v26c0 41 23 62 69 62c17 0 31 -4 44 -11c15 -9 23 -32 23 -68v-9z" />
    <glyph glyph-name="egrave" unicode="&#xe8;" horiz-adv-x="536" 
d="M314 571h-89l-137 178h127zM481 434c-32 71 -103 106 -214 106c-39 0 -75 -6 -112 -17c-79 -31 -119 -93 -119 -187v-127c0 -33 6 -65 18 -97c35 -80 111 -120 228 -120c45 0 86 2 121 6c56 10 84 16 84 17v132h-2c-65 -12 -125 -18 -178 -18h-13c-26 0 -45 3 -58 8
c-23 7 -35 29 -35 65v16h299v2v92c0 51 -6 92 -19 122zM336 328h-135v25c0 43 22 64 67 64c17 0 32 -4 46 -12c15 -9 22 -31 22 -68v-9z" />
    <glyph glyph-name="iacute" unicode="&#xed;" horiz-adv-x="300" 
d="M196 533v-533h-165v533h165zM171 748h127l-137 -177h-89z" />
    <glyph glyph-name="icircumflex" unicode="&#xee;" horiz-adv-x="372" 
d="M266 533v-533h-163v533h163zM241 724l107 -142h-107l-57 70l-56 -70h-108l108 142h113z" />
    <glyph glyph-name="idieresis" unicode="&#xef;" horiz-adv-x="394" 
d="M256 594c-13 11 -16 31 -16 47c0 13 3 34 16 45c15 13 35 15 54 15c16 0 39 -2 52 -15c13 -11 15 -32 15 -45c0 -16 -2 -36 -15 -47c-13 -13 -37 -15 -52 -15c-16 0 -39 2 -54 15zM36 594c-15 11 -17 31 -17 47c0 13 2 34 17 45c12 13 34 15 50 15c20 0 42 -2 54 -15
c15 -11 17 -32 17 -45c0 -16 -2 -36 -17 -47c-12 -13 -37 -15 -54 -15c-13 0 -38 2 -50 15zM280 533v-533h-162v533h162z" />
    <glyph glyph-name="igrave" unicode="&#xec;" horiz-adv-x="303" 
d="M269 532v-532h-164v532h164zM228 570h-87l-138 177h128z" />
    <glyph glyph-name="ntilde" unicode="&#xf1;" horiz-adv-x="546" 
d="M116 573c-3 76 34 117 90 117c29 0 50 -9 73 -18c19 -7 34 -16 47 -16c17 0 25 8 28 39h78c4 -83 -31 -114 -91 -114c-31 0 -53 10 -77 18c-19 9 -27 14 -42 14c-16 0 -25 -13 -27 -40h-79zM493 466c-40 67 -98 77 -162 74c-80 -3 -135 -36 -145 -41c-7 20 -15 34 -16 34
h-135v-533h164v380c27 16 51 21 70 22c11 1 22 0 32 -1c31 -6 46 -26 46 -60v-341h166v313c0 81 -5 126 -20 153z" />
    <glyph glyph-name="oacute" unicode="&#xf3;" horiz-adv-x="505" 
d="M302 748h125l-135 -179h-88zM478 413c-32 83 -104 125 -216 125h-18c-34 0 -66 -4 -96 -13c-89 -28 -133 -94 -133 -198v-118c0 -41 7 -78 22 -111c36 -68 105 -104 216 -104c51 0 92 7 128 24c73 29 109 95 109 200v98c0 37 -4 69 -12 97zM327 213c0 -15 -2 -25 -3 -33
c-7 -33 -29 -50 -68 -50h-3c-49 0 -74 23 -74 68v134c0 14 2 25 5 34c11 23 32 35 62 35h14c9 0 20 -2 31 -6c24 -7 36 -32 36 -73v-109z" />
    <glyph glyph-name="ocircumflex" unicode="&#xf4;" horiz-adv-x="507" 
d="M310 721l107 -138h-107l-57 67l-56 -67h-107l107 138h113zM478 414c-31 83 -103 124 -216 124h-19c-35 0 -66 -4 -95 -13c-89 -28 -133 -94 -133 -198v-119c0 -43 7 -79 22 -109c35 -70 107 -105 216 -105c51 0 94 7 127 22c74 29 111 97 111 202v98c0 37 -4 69 -13 98z
M327 212c0 -15 1 -25 -2 -33c-8 -33 -31 -50 -69 -50h-3c-50 0 -75 23 -75 68v135c0 13 2 24 5 33c13 24 34 36 63 36h14c11 0 22 -2 31 -7c24 -7 36 -31 36 -72v-110z" />
    <glyph glyph-name="odieresis" unicode="&#xf6;" horiz-adv-x="509" 
d="M311 598c-13 13 -16 34 -16 49s3 36 16 47c13 15 35 15 54 15c17 0 40 0 53 -15c15 -11 15 -32 15 -47s0 -36 -15 -49c-13 -11 -38 -13 -53 -13s-41 2 -54 13zM87 598c-15 13 -17 34 -17 49s2 36 17 47c13 15 36 15 53 15c19 0 40 0 53 -15c13 -11 15 -32 15 -47
s-2 -36 -15 -49c-13 -11 -38 -13 -53 -13s-40 2 -53 13zM477 413c10 -28 15 -60 15 -97v-97c0 -105 -37 -172 -112 -202c-35 -15 -77 -23 -128 -23c-110 0 -181 35 -214 104c-15 32 -23 69 -23 111v118c0 103 44 169 133 197c30 9 62 14 95 14h19c111 0 183 -42 215 -125z
M326 323c0 41 -12 65 -36 72c-10 4 -20 6 -30 6h-15c-30 0 -51 -12 -62 -36c-3 -7 -5 -17 -5 -32v-136c0 -45 25 -68 74 -68h3c37 0 60 16 69 49c1 9 2 20 2 35v110z" />
    <glyph glyph-name="ograve" unicode="&#xf2;" horiz-adv-x="509" 
d="M301 569h-86l-137 179h126zM15 316v-98c0 -104 37 -171 110 -200c36 -17 77 -24 128 -24c107 0 179 35 216 104c15 33 22 70 22 111v118c0 104 -45 170 -134 198c-29 9 -62 13 -95 13h-18c-113 0 -184 -42 -215 -125c-11 -28 -14 -60 -14 -97zM179 322c0 41 12 66 37 73
c8 4 18 6 29 6h15c29 0 50 -12 63 -35c3 -7 4 -19 4 -34v-134c0 -45 -25 -68 -74 -68h-3c-39 0 -61 17 -68 50c-3 8 -3 18 -3 33v109z" />
    <glyph glyph-name="otilde" unicode="&#xf5;" horiz-adv-x="506" 
d="M95 573c-3 76 33 117 92 117c27 0 49 -9 72 -18c17 -7 33 -16 46 -16c19 0 26 8 29 39h77c4 -83 -30 -114 -90 -114c-31 0 -54 10 -77 18c-20 9 -27 14 -42 14s-24 -13 -26 -40h-81zM478 414c-31 83 -103 125 -216 125h-17c-34 0 -66 -4 -96 -12
c-89 -30 -134 -97 -134 -200v-118c0 -41 8 -78 23 -110c35 -70 106 -105 215 -105c49 0 92 8 129 23c73 30 110 97 110 202v97c0 35 -5 68 -14 98zM328 213c0 -15 -1 -26 -2 -34c-8 -33 -31 -49 -69 -49h-4c-49 0 -73 23 -73 68v135c0 15 2 26 5 33c11 24 31 36 62 36h13
c11 0 22 -2 32 -6c24 -8 36 -33 36 -74v-109z" />
    <glyph glyph-name="scaron" unicode="&#x161;" horiz-adv-x="492" 
d="M189 580l-108 140h108l55 -68l57 68h107l-107 -140h-112zM432 263c-71 67 -260 64 -236 116c17 47 198 15 249 7l-15 139c-41 8 -112 17 -184 14c-81 -3 -207 -14 -223 -151c-5 -35 -3 -81 36 -118c81 -73 257 -62 236 -116c-24 -49 -231 -8 -269 0l14 -143
c42 -5 125 -20 203 -17c80 3 208 14 224 151c5 37 4 82 -35 118z" />
    <glyph glyph-name="uacute" unicode="&#xfa;" horiz-adv-x="558" 
d="M326 749h125l-136 -178h-88zM60 66c36 -68 102 -76 164 -73c80 3 128 35 142 41c3 -11 8 -18 12 -25c3 -3 5 -7 6 -10h135v535h-165h-1v-381c-25 -16 -50 -22 -69 -23c-11 -1 -22 -1 -32 1c-31 7 -46 28 -46 61v342h-167v-313c0 -81 6 -127 21 -155z" />
    <glyph glyph-name="ucircumflex" unicode="&#xfb;" horiz-adv-x="558" 
d="M60 66c39 -68 98 -76 162 -73c81 3 131 36 144 41c3 -11 7 -18 10 -25l5 -10h138v535h-166v-381c-27 -16 -51 -22 -70 -23c-11 -1 -22 -1 -31 1c-32 8 -48 28 -48 61v342h-165v-313c0 -81 6 -127 21 -155zM335 722l108 -138h-108l-57 68l-56 -68h-108l108 138h113z" />
    <glyph glyph-name="udieresis" unicode="&#xfc;" horiz-adv-x="558" 
d="M518 534v-535h-135l-5 10c-3 7 -6 15 -9 25c-14 -5 -62 -38 -145 -41c-64 -3 -126 5 -165 73c-15 28 -20 74 -20 155v313h166v-342c0 -35 16 -53 47 -61c10 -2 21 -2 32 -1c19 1 44 7 71 23v381h163zM339 601c-13 12 -16 33 -16 48s3 35 16 46c15 15 36 16 53 16
c19 0 42 -1 54 -16c13 -11 16 -31 16 -46s-3 -36 -16 -48c-12 -12 -38 -13 -54 -13c-15 0 -38 1 -53 13zM111 601c-13 12 -15 33 -15 48s2 35 15 46c12 15 36 16 55 16s39 -1 54 -16c13 -11 16 -31 16 -46s-3 -36 -16 -48c-15 -12 -39 -13 -54 -13s-43 1 -55 13z" />
    <glyph glyph-name="ugrave" unicode="&#xf9;" horiz-adv-x="558" 
d="M328 571h-89l-135 178h125zM59 66c42 -68 100 -76 164 -73c82 3 132 35 146 41c3 -11 7 -18 10 -25l5 -10h136v535h-164h-1v-381c-27 -16 -52 -22 -71 -23c-11 -1 -22 -1 -32 1c-31 8 -47 26 -47 61v342h-165v-313c0 -81 4 -127 19 -155z" />
    <glyph glyph-name="yacute" unicode="&#xfd;" horiz-adv-x="626" 
d="M367 748h125l-135 -179h-89zM426 533l-104 -329l-125 329h-182l221 -533c0 -36 -12 -57 -35 -64c-11 -5 -30 -8 -59 -8h-12c-15 0 -29 0 -44 1v-136c23 -1 44 -2 68 -2c51 0 93 7 130 22c85 37 110 127 134 187c11 32 58 164 104 290c27 73 56 154 87 243h-183z" />
    <glyph glyph-name="ydieresis" unicode="&#xff;" horiz-adv-x="627" 
d="M373 601c-15 11 -16 32 -16 47s1 35 16 46c13 13 34 15 53 15s41 -2 54 -15c13 -11 15 -31 15 -46s-2 -36 -15 -47c-13 -13 -39 -15 -54 -15s-40 2 -53 15zM148 601c-13 11 -15 32 -15 47s2 35 15 46c13 13 36 15 55 15c16 0 40 -2 52 -15c13 -11 16 -31 16 -46
s-3 -36 -16 -47c-12 -13 -37 -15 -52 -15c-16 0 -42 2 -55 15zM611 533c-31 -89 -60 -170 -87 -243c-46 -126 -92 -258 -103 -290c-21 -60 -48 -150 -136 -187c-35 -15 -78 -22 -129 -22c-23 0 -46 1 -67 2v136c15 -1 29 -1 44 -1h13c27 0 46 1 58 8c23 7 35 29 35 64
l-222 533h182l126 -329l103 329h183z" />
    <glyph glyph-name="zcaron" unicode="&#x17e;" horiz-adv-x="519" 
d="M222 580l-107 140h107l57 -68l56 68h108l-108 -140h-113zM506 533h-444l-17 -138h209l-240 -395h458l15 136h-207z" />
    <glyph glyph-name=".null" unicode="&#xe000;" horiz-adv-x="0" 
 />
    <glyph glyph-name="CR" unicode="&#xe001;" horiz-adv-x="500" 
 />
    <glyph glyph-name="_183" unicode="&#xe002;" horiz-adv-x="-460" 
 />
    <glyph glyph-name="Scommaaccent" unicode="&#x218;" horiz-adv-x="634" 
d="M418 -112c0 -19 -4 -32 -7 -41c-2 -5 -4 -10 -6 -14l-71 -117l-47 -1l37 96c-21 0 -43 3 -58 18c-19 15 -20 36 -20 59c0 24 1 45 20 60c15 15 49 17 66 17s50 -2 67 -17s19 -36 19 -60zM292 -6c-88 0 -177 13 -226 21l-15 168c37 -8 141 -29 226 -29c71 0 112 16 123 48
c4 15 4 28 -1 39c-16 31 -61 45 -121 62c-65 16 -144 41 -192 89c-49 49 -46 113 -41 157c7 82 42 139 105 170c53 28 116 32 169 35h27c76 0 148 -10 195 -17l16 -164c-31 8 -116 23 -191 23c-76 0 -120 -17 -132 -50c-5 -13 -4 -26 1 -40c17 -33 67 -48 131 -67
c68 -19 141 -41 182 -85c48 -48 46 -114 41 -156c-7 -81 -41 -138 -104 -170c-55 -28 -115 -31 -170 -34h-23z" />
    <glyph glyph-name="scommaaccent" unicode="&#x219;" horiz-adv-x="534" 
d="M491 145c-16 -137 -144 -149 -224 -152c-78 0 -161 10 -204 18l-14 143c35 -8 248 -50 269 0c20 53 -157 42 -236 117c-40 35 -41 81 -36 116c16 139 147 150 224 153c72 3 143 -6 184 -13l14 -141c-48 12 -232 40 -249 -6c-20 -56 164 -48 237 -117
c37 -36 40 -82 35 -118zM349 -168l-70 -118l-48 -1l37 96c-21 0 -43 5 -58 18c-17 15 -19 36 -19 61c0 23 2 45 19 60c16 13 48 16 67 16c17 0 50 -3 66 -16c19 -15 20 -37 20 -60c0 -19 -4 -33 -7 -42c-3 -5 -5 -10 -7 -14z" />
    <glyph glyph-name="tcommaaccent" unicode="&#x163;" horiz-adv-x="442" 
d="M404 118v-120h-39c-117 0 -246 -10 -246 187c0 3 -1 57 -1 109v102h-80v137h80v133l165 28v-161h123l-16 -137h-107v-152v152v-189c0 -35 0 -62 35 -73c27 -13 82 -16 86 -16zM348 -168l-70 -118l-48 -1l36 96c-21 0 -45 5 -58 18c-17 15 -21 36 -21 61c0 23 4 45 21 60
c16 13 50 16 67 16s50 -3 67 -16c17 -15 19 -37 19 -60c0 -19 -4 -33 -7 -42c-2 -5 -4 -10 -6 -14z" />
    <glyph glyph-name="Tcommaaccent" unicode="&#x162;" horiz-adv-x="629" 
d="M588 749v-145h-179v-265v-339h-191v604h-179v145h179h191h179zM381 -52c-16 15 -50 17 -66 17c-19 0 -52 -2 -68 -17s-19 -36 -19 -60c0 -23 3 -44 19 -59c13 -15 38 -18 58 -18l-36 -96l48 1l71 117c2 4 4 9 6 14c3 9 7 22 7 41c0 24 -4 45 -20 60z" />
    <glyph glyph-name="Euro" unicode="&#x20ac;" horiz-adv-x="730" 
d="M330 480h326l-10 -84h-318v-45h312l-8 -83h-303c5 -51 17 -76 32 -87c17 -24 74 -37 146 -37h19c39 0 91 5 163 16v-148c-20 -3 -48 -8 -79 -12c-35 -4 -71 -7 -118 -7c-164 0 -271 58 -322 173c-11 23 -20 55 -23 102h-112l10 83h99v45h-95l11 84h87c7 63 19 107 42 136
c57 92 158 138 303 138c62 0 128 -7 197 -21v-147c-76 11 -133 16 -177 16c-71 0 -127 -11 -148 -34c-15 -7 -27 -37 -34 -88z" />
    <glyph glyph-name="Abreve" unicode="&#x102;" horiz-adv-x="780" 
d="M329 904c3 -21 17 -44 61 -44c43 0 61 21 66 44h82c-3 -69 -47 -121 -148 -121c-102 0 -143 52 -146 121h85zM497 749h-211l-272 -749h211l35 115h262l35 -115h210zM295 253l95 322l98 -322h-193z" />
    <glyph glyph-name="abreve" unicode="&#x103;" 
d="M457 453c-25 53 -90 80 -195 80h-165l-14 -138h154c30 0 51 -5 62 -14c11 -4 17 -24 17 -61v-18h-78c-73 0 -121 -7 -142 -20c-45 -21 -67 -63 -67 -128v-4c0 -37 9 -70 28 -100c29 -37 68 -56 116 -56h16c51 0 100 13 148 39c1 -8 1 -16 4 -23c1 -3 2 -7 3 -10h135v328
c0 53 -7 95 -22 125zM316 131c-30 -14 -56 -21 -77 -21c-31 0 -46 15 -46 44c0 12 3 21 8 28c7 7 26 10 58 10h57v-61zM210 695c3 -23 18 -45 62 -45c45 0 61 21 66 45h82c-3 -71 -47 -120 -148 -120c-103 0 -143 49 -146 120h84z" />
    <glyph glyph-name="_203" unicode="&#xe003;" horiz-adv-x="1095" 
d="M85 404h27v-31h-16c-6 0 -9 -1 -9 -4c-1 -3 -2 -6 -2 -9v-16h27l-2 -31h-25v-92h-39v92h-18v31h18v19c0 21 7 33 20 38c4 1 7 2 9 2c2 1 5 1 10 1zM214 326c4 -7 6 -17 6 -28v-77h-32c0 1 0 2 -1 2c0 1 -2 3 -2 6c-5 -3 -9 -6 -16 -7c-7 -3 -12 -2 -17 -2h-3
c-12 0 -21 4 -28 13c-4 7 -7 13 -7 24c0 14 6 24 17 31c5 2 15 3 32 3h18v3c0 9 -1 15 -3 17c-4 1 -9 2 -15 2h-35l3 31h38c24 0 40 -3 45 -18zM181 265h-12c-7 0 -12 -1 -14 -3c-1 0 -2 -2 -2 -5c0 -7 3 -10 10 -10c4 0 7 0 8 1c3 0 7 2 10 3v14zM291 346c12 0 25 -1 40 -4
v-31c-8 1 -15 2 -21 3c-7 1 -12 1 -15 1c-11 0 -15 -1 -19 -4c-2 -3 -3 -10 -3 -20v-17c0 -10 1 -16 3 -17c3 -4 10 -6 19 -6h1c6 0 11 0 14 1c5 0 12 2 21 3v-31c0 1 -8 -1 -23 -4h-7c-5 0 -6 -1 -10 -1c-27 0 -44 10 -51 29c-3 5 -5 15 -5 32v8c0 17 2 28 7 35
c9 17 25 23 49 23zM446 322c1 -7 3 -17 3 -29v-20v-2h-70v-1c0 -9 3 -15 9 -18c1 0 3 0 6 -1h8h2c15 0 29 1 42 4v-31s-7 -1 -20 -3c-8 -1 -16 -2 -27 -2c-27 0 -45 9 -53 28c-3 6 -4 14 -4 23v31c0 21 9 35 26 41c7 3 8 3 15 3c3 1 7 1 12 1c25 0 40 -5 51 -24zM412 301
c0 8 -2 13 -7 14c-3 1 -6 3 -10 3c-5 0 -8 -2 -11 -3c-3 -3 -5 -6 -5 -11v-6h33v3zM571 329c5 -4 5 -16 5 -36v-11c0 -23 0 -34 -5 -38c0 -4 -3 -8 -8 -11c-9 -9 -25 -14 -47 -14c-8 0 -16 1 -25 2c-9 0 -17 2 -26 3v171l39 7v-60c4 1 11 2 14 3c5 1 9 1 12 1
c23 0 37 -6 41 -17zM538 301c0 7 -3 11 -10 14h-5h-3c-6 0 -11 -2 -16 -6v-58h11h2c13 0 19 3 20 10c1 1 1 6 1 9v31zM699 316c2 -5 3 -13 3 -22v-23c0 -23 -9 -38 -26 -47c-9 -3 -19 -5 -31 -5c-25 0 -41 9 -48 26c-5 7 -7 15 -7 25v26c0 25 11 40 32 46c3 3 8 2 11 3
s6 1 11 1h4c13 0 24 -2 32 -6c9 -7 14 -13 19 -24zM663 295c0 11 -3 17 -8 18c-1 1 -3 2 -4 2h-3h-3c-7 0 -12 -3 -14 -10c-1 0 -1 -1 -1 -2v-4v-31c0 -11 5 -17 15 -17h2c9 0 14 4 16 11v5v4v24zM819 316c3 -5 4 -12 4 -22v-23c0 -24 -9 -40 -26 -47c-9 -3 -17 -5 -30 -5
c-24 0 -41 9 -50 26c-3 7 -4 14 -4 25v26c0 25 10 40 31 46c3 3 7 2 11 3c3 1 7 1 11 1h4c13 0 24 -2 33 -6c7 -6 13 -14 16 -24zM785 295c0 11 -3 17 -9 18c-1 1 -2 2 -3 2h-3h-4c-7 0 -11 -3 -14 -10c-1 -1 -1 -1 -1 -2v-4v-31c0 -11 5 -17 16 -17h1c9 0 15 4 17 11v5v4
v24zM878 402v-112l35 54h41l-39 -59l39 -64h-41l-35 58v-58h-39v174zM1019 404c8 0 15 -1 21 -4c5 -2 10 -5 14 -10c7 -5 8 -9 11 -16s5 -12 5 -20c0 -7 -2 -13 -5 -20c-3 -5 -4 -11 -11 -16c-4 -4 -9 -7 -14 -10c-6 -3 -13 -4 -21 -4c-7 0 -14 1 -19 4s-12 6 -17 10
c-3 6 -7 11 -11 16c-1 7 -3 12 -3 20s2 13 3 20c4 7 8 11 11 16c5 5 12 7 17 10s12 4 19 4zM1019 312c6 0 12 1 17 3c5 1 10 5 14 9c3 5 6 8 9 15c3 3 2 10 2 15c0 7 -1 13 -2 16c-3 5 -6 10 -9 14c-4 3 -9 6 -14 9c-5 2 -11 3 -17 3c-7 0 -11 -1 -14 -3
c-7 -3 -10 -6 -15 -9c-4 -4 -8 -9 -9 -14c-2 -5 -3 -11 -3 -16s0 -12 3 -15c1 -7 5 -10 9 -15c5 -4 8 -8 15 -9c3 -2 7 -3 14 -3zM1041 342c0 -2 1 -6 2 -11c0 -3 1 -5 3 -6h-13c0 2 -1 4 -2 5c-1 3 -2 6 -2 10c0 1 -1 3 -3 5c-5 1 -8 2 -9 2h-7v-22h-12v59c3 0 5 1 8 1
s6 1 11 1c9 0 16 -2 21 -5c1 -1 2 -3 3 -6c1 -1 2 -3 2 -5c0 -7 -2 -8 -2 -11c-2 -5 -5 -7 -10 -7c3 -1 5 -2 6 -3c1 -3 3 -4 4 -7zM1018 355c5 0 9 2 11 5c1 3 2 4 2 7c-1 7 -5 10 -13 10c-2 0 -4 0 -6 -1h-2v-21h8z" />
  </font>
</defs>
</svg>
